<svg width="260" height="260" viewBox="0 0 260 260" fill="none" xmlns="http://www.w3.org/2000/svg">
<path fill-rule="evenodd" clip-rule="evenodd" d="M63.2758 41.0094C64.489 41.0949 65.2257 42.019 65.2473 43.645C65.2825 46.313 65.2571 48.9814 65.2571 51.6498V56.4727C68.0056 56.4727 70.6842 56.4791 73.3624 56.4663C73.8223 56.4642 74.2809 56.348 74.7413 56.3412C80.7424 56.2527 86.7447 56.0783 92.7454 56.1187C99.206 56.1621 105.665 56.4178 112.125 56.5633C116.205 56.6548 120.285 56.7764 124.365 56.7718C128.941 56.7667 133.519 56.522 138.093 56.5918C141.847 56.6484 145.595 57.0194 149.347 57.2385C151.034 57.3363 152.721 57.4248 154.409 57.4789C157.367 57.5742 160.327 57.6282 163.286 57.7197C167.975 57.8652 172.663 58.0481 177.353 58.1753C181.348 58.2838 185.345 58.3378 189.342 58.4114C189.993 58.4234 190.645 58.4131 191.476 58.4131C191.552 58.0294 191.733 57.4938 191.755 56.9517C191.859 54.4114 191.954 51.8698 191.981 49.3277C191.994 48.1777 191.782 47.0252 191.792 45.8752C191.798 45.2494 191.945 44.5699 192.223 44.013C192.803 42.8545 193.741 42.524 194.978 42.8792C196.289 43.2562 196.838 43.933 196.814 45.2685C196.752 48.7368 196.681 52.2046 196.576 55.6716C196.548 56.6156 196.389 57.555 196.283 58.5603C198.651 58.7526 200.851 58.9943 203.057 59.0939C206.126 59.233 209.202 59.2151 212.271 59.3555C216.214 59.5363 220.152 59.8205 224.094 60.0349C226.07 60.1422 228.049 60.2319 230.026 60.2528C230.95 60.2626 231.319 60.5421 231.288 61.5257C231.167 65.302 231.153 69.0821 231.024 72.8579C230.947 75.1111 230.731 77.3596 230.573 79.6749C230.164 79.7115 229.837 79.7408 229.237 79.7944C230.879 86.2323 233.52 92.1013 237 97.6309C236.861 97.7611 236.723 97.8908 236.585 98.021C234.221 96.9429 231.857 95.8648 229.353 94.7225C229.146 97.3892 228.937 100.078 228.726 102.768C228.424 106.626 228.119 110.484 227.82 114.343C227.793 114.689 227.808 115.038 227.802 115.386C227.725 119.635 227.659 123.885 227.565 128.134C227.514 130.481 227.434 132.827 227.335 135.172C227.116 140.398 226.87 145.623 226.646 150.849C226.408 156.42 226.242 161.996 225.928 167.562C225.758 170.571 225.321 173.564 225.046 176.569C224.85 178.704 224.736 180.846 224.562 182.983C224.27 186.569 223.956 190.152 223.66 193.737C223.627 194.121 223.648 194.51 223.64 194.896C223.486 201.678 223.337 208.459 223.168 215.241C223.149 216.043 223.05 216.847 222.925 217.64C222.789 218.503 222.304 219.005 221.364 219C208.881 218.939 196.4 218.865 183.918 218.838C175.452 218.82 166.986 218.899 158.521 218.891C114.181 218.846 69.8398 218.787 25.4991 218.733C23.8175 218.731 23.4652 218.386 23.4444 216.645C23.3626 209.805 23.299 202.965 23.2075 196.125C23.1511 191.914 22.9726 187.703 23.0036 183.493C23.0354 179.174 23.3033 174.857 23.3758 170.538C23.4169 168.106 23.1926 165.671 23.2257 163.239C23.3435 154.628 23.5135 146.018 23.6788 137.408C23.7306 134.708 23.8374 132.008 23.9027 129.308C23.9891 125.758 24.0341 122.207 24.1439 118.657C24.2689 114.614 24.3855 110.57 24.6157 106.532C24.8454 102.509 25.2184 98.495 25.5143 94.4758C25.616 93.0948 25.7042 91.7112 25.747 90.3272C25.8437 87.2027 25.8365 84.0731 26.006 80.9529C26.1769 77.811 26.5122 74.6776 26.7716 71.5399C26.8258 70.8864 26.8903 70.2325 26.9064 69.5773C26.9929 66.0793 27.0526 62.5804 27.1484 59.0824C27.1912 57.5061 27.6957 57.0424 29.2276 57.0283C37.926 56.9492 46.6243 56.8811 55.3226 56.7764C56.972 56.7565 58.6197 56.5875 60.4369 56.4769V50.367C60.437 48.3415 60.4374 46.3245 60.4382 44.3074C60.4382 43.9603 60.4056 43.6029 60.4721 43.2672C60.785 41.6914 61.7794 40.9039 63.2758 41.0094ZM27.7016 79.3179C27.5651 81.2639 27.4329 82.8002 27.3532 84.3386C27.106 89.1024 26.8818 93.8669 26.6436 98.6307C26.4952 101.59 26.3197 104.548 26.1883 107.508C26.0158 111.393 25.8466 115.278 25.7263 119.164C25.5469 124.951 25.385 130.739 25.2659 136.528C25.1527 142.012 25.0684 147.498 25.0353 152.983C25.0005 158.784 25.0463 164.586 25.0468 170.387C25.0472 173.79 25.054 177.194 25.009 180.597C24.9666 183.795 24.8259 186.993 24.7911 190.192C24.7551 193.473 24.7988 196.755 24.8022 200.036C24.8056 203.805 24.803 207.573 24.803 211.474C26.0098 211.42 26.8814 211.333 27.7508 211.35C34.7518 211.49 41.7525 211.624 48.7523 211.812C52.477 211.912 56.1988 212.106 59.9215 212.271C64.9862 212.496 70.0483 212.799 75.1152 212.952C84.3879 213.231 93.6623 213.489 102.938 213.633C109.901 213.742 116.867 213.709 123.832 213.642C127.248 213.609 130.661 213.329 134.077 213.21C139.266 213.029 144.455 212.793 149.646 212.755C160.781 212.674 171.916 212.698 183.052 212.693C191.023 212.689 198.996 212.653 206.968 212.736C211.536 212.782 216.102 213.023 220.668 213.212C221.535 213.247 221.808 212.907 221.837 212.082C221.963 208.542 222.155 205.004 222.28 201.464C222.39 198.379 222.442 195.292 222.52 192.206C222.528 191.897 222.526 191.588 222.556 191.28C222.849 188.235 223.163 185.192 223.438 182.145C223.625 180.086 223.731 178.018 223.924 175.958C224.202 172.992 224.642 170.035 224.807 167.063C225.122 161.337 225.285 155.603 225.527 149.872C225.746 144.683 226.015 139.496 226.208 134.305C226.338 130.798 226.378 127.288 226.449 123.779C226.532 119.647 226.605 115.514 226.682 111.381C226.684 111.266 226.68 111.149 226.688 111.033C226.994 107.06 227.287 103.086 227.615 99.1148C227.712 97.9363 227.958 96.7689 228.03 95.59C228.07 94.9467 228.13 94.0452 227.763 93.6806C225.999 91.9197 224.092 90.3017 222.252 88.6476V96.3014C218.558 92.1571 215.494 87.6371 210.794 84.8334C210.924 87.6907 211.244 90.5757 210.225 93.6968C209.576 93.0488 209.073 92.6676 208.726 92.1762C207.895 91.0003 207.208 89.7188 206.334 88.5799C205.166 87.0577 203.876 85.6294 202.612 84.1319C202.283 86.9649 201.987 89.5831 201.66 92.1975C201.628 92.4553 201.458 92.7808 201.252 92.9008C201.12 92.9778 200.755 92.7867 200.58 92.6234C200.336 92.3949 200.161 92.0882 199.976 91.8014C197.912 88.6088 195.858 85.4099 193.777 82.228C193.64 82.017 193.317 81.8149 193.072 81.8047C190.731 81.7068 188.389 81.5996 186.048 81.5936C177.194 81.5702 168.341 81.5843 159.55 81.5843C158.576 84.1808 157.606 86.8122 156.589 89.4249C156.44 89.8061 156.065 90.0979 155.794 90.4315C155.533 90.1251 155.175 89.8597 155.027 89.5053C154.182 87.4797 153.386 85.4324 152.452 83.0848C151.713 84.4654 151.122 85.569 150.531 86.6731C149.163 89.2308 147.805 91.7946 146.417 94.3417C146.186 94.7659 145.829 95.1203 145.531 95.5066C145.295 95.0999 144.966 94.7204 144.841 94.2822C143.595 89.9026 142.383 85.5137 141.151 81.0882C140.283 81.1456 139.596 81.2456 138.913 81.2278C131.91 81.0482 124.908 80.8334 117.904 80.6611C110.784 80.4862 103.663 80.3326 96.5418 80.1986C91.0753 80.0956 85.607 80.045 80.14 79.9548C78.7556 79.9318 77.3716 79.8 75.9884 79.8178C75.5679 79.8234 74.885 80.0671 74.7777 80.3662C74.15 82.1182 73.6549 83.9179 73.1216 85.703C73.0076 86.0847 72.9207 86.4739 72.821 86.8603C72.3365 86.7296 71.71 86.7479 71.3925 86.4429C70.1467 85.2453 68.9979 83.9455 68.0009 82.8836C65.9654 84.7802 63.915 86.856 61.6819 88.7105C60.3157 89.8456 58.7121 90.722 57.1344 91.5614C55.9949 92.1677 55.624 91.8418 55.574 90.6008C55.5308 89.5287 55.5443 88.4314 55.3108 87.3959C54.9844 85.9506 54.4515 84.5518 54.0073 83.1333C53.8174 83.1359 53.6275 83.1384 53.4376 83.141C53.1379 84.2072 52.8564 85.2793 52.5292 86.337C52.4134 86.7101 52.2587 87.25 51.9904 87.3474C51.7051 87.4508 51.1774 87.2112 50.9073 86.9585C50.2957 86.3855 49.7777 85.712 49.2207 85.0802C48.8629 84.6747 48.5034 84.2706 48.1444 83.8655C48.0126 83.8932 47.8807 83.9208 47.7493 83.9485C47.6404 85.8519 47.5319 87.7558 47.4098 89.8928C44.4065 88.5361 42.4282 85.812 39.5152 83.7536C39.7415 88.8671 40.992 93.4572 42.4455 98.0474C35.4021 93.6376 30.6299 87.3984 27.7016 79.3179ZM138.616 108.001C145.587 108.113 152.559 108.173 159.53 108.265C164.036 108.324 168.541 108.41 173.046 108.482C178.207 108.563 183.367 108.637 188.527 108.725C192.377 108.79 196.227 108.869 200.077 108.947C203.806 109.022 207.535 109.089 211.263 109.213C211.528 109.222 212.007 109.686 212 109.926C211.917 112.573 211.758 115.219 211.619 117.864C211.611 118.018 211.582 118.17 211.577 118.324C211.497 120.904 211.431 123.484 211.341 126.063C211.195 130.216 211.034 134.369 210.878 138.522C210.805 140.444 210.719 142.366 210.65 144.288C210.492 148.75 210.343 153.213 210.184 157.675C210.114 159.634 210.025 161.594 209.957 163.554C209.797 168.17 209.649 172.787 209.49 177.402C209.421 179.402 209.33 181.4 209.264 183.398C209.104 188.209 208.935 193.02 208.815 197.832C208.794 198.686 208.356 198.76 207.711 198.746C204.133 198.674 200.555 198.559 196.977 198.556C186.15 198.547 175.322 198.581 164.495 198.601C138.256 198.649 112.016 198.682 85.7765 198.754C71.9831 198.792 58.1892 198.887 44.3962 199C43.2765 199.009 42.9954 198.689 43 197.584C43.1078 173.024 43.1778 148.464 43.2549 123.904C43.2558 123.604 43.2549 123.303 43.2549 123.207C47.9741 123.207 52.5089 123.201 57.0437 123.212C57.7742 123.214 58.5042 123.321 59.2352 123.331C65.3581 123.417 71.4815 123.466 77.6041 123.577C84.5661 123.704 91.5277 123.883 98.4897 124.04C105.186 124.192 111.882 124.337 118.578 124.502C124.35 124.643 130.122 124.809 135.894 124.961C136.31 124.972 136.727 124.963 137.265 124.963C137.306 124.259 137.37 123.653 137.371 123.047C137.38 118.444 137.402 113.841 137.356 109.238C137.346 108.253 137.67 107.986 138.616 108.001ZM64.4547 179.172H44.6735V197.804H64.4547V179.172ZM112.128 179.621H88.6413V197.792H111.667C111.82 191.746 111.972 185.757 112.128 179.621ZM87.1981 179.4H65.735V197.771H87.1981V179.4ZM136.298 179.862H113.096V197.77H136.298V179.862ZM161.631 110.781C161.534 111.973 161.414 113.166 161.402 114.359C161.372 117.685 161.392 121.012 161.392 124.339V125.357C157.151 125.357 153.078 125.358 149.005 125.351C148.816 125.351 148.628 125.246 148.44 125.243C145.898 125.211 143.356 125.176 140.815 125.185C140.594 125.186 140.374 125.497 140.154 125.663C140.342 125.902 140.492 126.292 140.725 126.35C141.35 126.505 142.012 126.583 142.658 126.577C148.474 126.517 154.291 126.432 160.107 126.356C160.516 126.351 160.924 126.355 161.437 126.355C161.336 127.667 161.196 128.811 161.17 129.958C161.068 134.357 161.004 138.758 160.92 143.157C160.917 143.295 160.846 143.432 160.793 143.614C153.833 143.412 146.915 143.212 140.02 143.012C139.624 144.692 139.624 144.693 141.231 144.693C145.547 144.694 149.864 144.659 154.179 144.708C156.403 144.733 158.624 144.906 160.913 145.016C160.839 145.765 160.722 146.479 160.706 147.196C160.613 151.247 160.555 155.298 160.454 159.349C160.439 159.941 160.261 160.529 160.167 161.07C157.58 161.07 155.116 161.117 152.655 161.059C148.694 160.967 144.736 160.795 140.776 160.699C140.448 160.691 140.113 161.004 139.781 161.168C139.819 161.312 139.857 161.455 139.895 161.598C140.522 161.689 141.148 161.85 141.776 161.86C147.665 161.956 153.555 162.024 159.445 162.107C159.697 162.111 159.95 162.177 160.293 162.227C160.12 168.018 159.948 173.742 159.779 179.361H140.184V180.474H159.773C159.773 181.027 159.779 181.448 159.772 181.869C159.697 186.311 159.607 190.753 159.559 195.195C159.555 195.681 159.797 196.169 159.925 196.656L160.404 196.59C160.617 191.245 160.829 185.898 161.048 180.388C168.799 180.557 176.513 180.724 184.255 180.892C184.182 181.908 184.098 182.781 184.058 183.655C183.897 187.265 183.738 190.876 183.603 194.487C183.581 195.087 183.39 195.82 184.394 196.14C184.673 191.03 184.948 186.005 185.224 180.952C185.574 180.929 185.761 180.903 185.947 180.908C192.14 181.058 198.332 181.216 204.526 181.35C204.924 181.358 205.346 181.218 205.719 181.058C205.879 180.99 206.067 180.658 206.022 180.513C205.958 180.302 205.724 180.079 205.51 179.993C205.274 179.899 204.979 179.946 204.71 179.942C200.934 179.898 197.158 179.844 193.383 179.816C190.699 179.796 188.015 179.812 185.242 179.812C185.503 173.939 185.754 168.31 186.007 162.604C186.31 162.591 186.57 162.566 186.83 162.569C192.412 162.644 197.994 162.715 203.576 162.808C204.334 162.822 205.091 162.993 205.85 163.001C206.059 163.003 206.271 162.681 206.482 162.507C206.282 162.364 206.101 162.157 205.877 162.091C205.629 162.017 205.343 162.071 205.073 162.068C198.993 161.991 192.912 161.914 186.831 161.832C186.568 161.829 186.305 161.78 186.035 161.752C186.159 159.414 186.306 157.123 186.395 154.83C186.501 152.097 186.562 149.363 186.632 146.629C186.654 145.77 186.922 145.339 187.924 145.367C192.503 145.496 197.085 145.533 201.666 145.63C203.16 145.661 204.653 145.816 206.147 145.829C206.58 145.833 207.016 145.542 207.451 145.386C207.432 145.244 207.413 145.101 207.395 144.959C206.978 144.858 206.564 144.678 206.146 144.671C200.294 144.575 194.442 144.507 188.59 144.421C188.032 144.412 187.71 144.064 187 144C187.118 142.596 187.032 141.602 187.087 140.343C187.262 136.231 187.432 132.117 187.536 128.002C187.558 127.108 187.762 126.757 188.708 126.803C191.281 126.929 193.859 126.958 196.433 127.056C199.73 127.182 203.024 127.371 206.321 127.444C206.763 127.453 207.216 126.938 207.664 126.665C207.266 126.396 206.899 126.006 206.46 125.891C206.048 125.784 205.559 126.018 205.105 126.014C201.027 125.984 196.949 125.929 192.87 125.893C191.222 125.878 189.573 125.891 187.754 125.891C188.041 120.753 188.316 115.818 188.59 110.9C187.067 110.706 186.855 110.875 186.831 112.131C186.751 116.339 186.677 120.546 186.596 124.754C186.589 125.089 186.54 125.424 186.518 125.674H162.546C162.744 120.393 162.935 115.296 163.127 110.183C162.318 110.061 161.704 109.88 161.631 110.781ZM117.169 194C122.146 194.085 127.122 194.203 132.097 194.336C132.403 194.344 132.7 194.55 133 194.664C132.951 194.776 132.902 194.888 132.853 195C127.285 194.422 121.676 195.361 116.108 194.738C116.072 194.623 116.036 194.509 116 194.395C116.39 194.257 116.783 193.993 117.169 194ZM162.363 162.001C169.832 162.206 177.301 162.371 185 162.553C184.74 168.415 184.484 174.192 184.226 180H161.006C161.006 178.768 160.991 177.632 161.009 176.496C161.08 172.063 161.169 167.629 161.232 163.195C161.244 162.391 161.449 161.976 162.363 162.001ZM113.443 160.881V178.864H136.525V161.568C128.913 161.341 121.257 161.114 113.443 160.881ZM88.6726 160.178V178.661H112.141C112.27 172.762 112.4 166.877 112.531 160.888L105.756 160.686C100.109 160.518 94.4462 160.349 88.6726 160.178ZM65.7499 159.525V178.397H87.1175V160.167C79.9317 159.951 72.8192 159.737 65.7499 159.525ZM44.5654 158.968V178.01H64.4475V159.495C57.7335 159.317 51.1 159.141 44.5654 158.968ZM100.607 169.019C101.037 169.023 101.464 169.18 102 169.288C100.904 170.114 93.5269 170.271 92 169.496C92.5275 169.306 92.9349 169.037 93.3518 169.03C95.7689 168.988 98.1886 168.996 100.607 169.019ZM110.219 166.079C110.489 166.086 110.75 166.296 111 166.62C110.514 166.695 110.029 166.832 109.541 166.837C106.991 166.859 104.44 166.826 101.89 166.853C99.6048 166.878 97.3211 166.971 95.0366 167C94.3727 167.008 93.7059 166.9 93.0403 166.845C92.8651 166.16 93.279 166.033 93.9257 166.059C95.3291 166.118 96.7345 166.224 98.1363 166.208C100.268 166.184 102.397 166.038 104.529 166.008C106.425 165.981 108.323 166.028 110.219 166.079ZM100.07 163.02C101.386 163.026 102.702 163.022 104.016 163.057C104.679 163.075 105.339 163.171 106 163.231C105.991 163.391 105.982 163.552 105.973 163.713C105.548 163.765 105.124 163.862 104.699 163.863C102.514 163.866 100.329 163.818 98.1456 163.838C96.5897 163.853 95.0359 163.954 93.48 163.998C93.1387 164.007 92.7613 163.988 92.4604 163.886C92.243 163.811 91.9752 163.561 92.0018 163.417C92.0311 163.258 92.3698 163.009 92.5761 163.008C95.0741 162.989 97.5722 163.008 100.07 163.02ZM162 145C170.049 145.16 177.941 145.316 186 145.476C185.809 150.224 185.375 154.869 185.114 159.617L185 161.991L182.7 161.928C175.689 161.693 168.858 161.14 162 161V145ZM113.85 143.339V160.01C121.376 160.211 128.97 160.413 136.738 160.621V143.834C129.234 143.672 121.678 143.508 113.85 143.339ZM88.8147 142.742V159.338C96.7293 159.56 104.594 159.781 112.702 160.009V143.315C104.779 143.125 96.8366 142.934 88.8147 142.742ZM65.7185 142.198V158.768C72.9061 158.949 80.0266 159.128 87.1497 159.307V142.686C79.994 142.523 72.8751 142.361 65.7185 142.198ZM44.4543 141.645V158.168C51.156 158.352 57.7818 158.534 64.5869 158.72V142.161C57.867 141.989 51.1615 141.817 44.4543 141.645ZM47.7978 146C50.738 146.047 53.6778 146.165 56.6168 146.283C56.7469 146.288 56.8724 146.475 57 146.576L56.9907 147H47.1564C47.1043 146.908 47.0521 146.816 47 146.724C47.2662 146.472 47.5345 145.996 47.7978 146ZM47.3312 143C49.7137 143.009 52.0958 143.121 54.4783 143.178C55.8369 143.211 57.1968 143.177 58.554 143.226C59.8809 143.273 61.2056 143.379 62.5291 143.487C62.6927 143.5 62.8433 143.683 63 143.787C62.967 143.858 62.9345 143.929 62.9015 144H46.112L46 143.576C46.4436 143.375 46.8881 142.998 47.3312 143ZM162.657 126C170.694 126.127 178.745 126.255 187 126.385C186.787 132.307 186.58 138.058 186.367 144C178.135 143.794 170.034 143.591 162 143.391C162.11 138.092 162.211 132.829 162.34 127.566C162.352 127.076 162.533 126.591 162.657 126ZM114.482 125.624C114.328 131.288 114.18 136.757 114.03 142.305C121.711 142.478 129.266 142.648 136.984 142.823V126.165C129.503 125.986 121.998 125.805 114.482 125.624ZM88.827 125.056V141.795C96.8095 141.951 104.757 142.106 112.934 142.265V125.595C104.922 125.416 96.9002 125.237 88.827 125.056ZM65.7219 124.494V141.32C72.8849 141.456 79.9804 141.591 87.1349 141.727V125.002C79.9855 124.833 72.8938 124.665 65.7219 124.494ZM44.3555 125.218C44.4001 130.051 44.3746 134.885 44.3789 139.719C44.3793 140.05 44.4213 140.381 44.4543 140.865C51.2306 141.007 57.9132 141.146 64.6811 141.288V124.573C62.6452 124.456 60.6941 124.293 58.7396 124.244C54.3553 124.132 49.9689 124.101 45.5855 123.98C44.6176 123.953 44.3466 124.257 44.3555 125.218ZM52.4287 99C52.6746 99.3263 53.0392 99.616 53.1437 99.986C53.4638 101.121 53.6844 102.286 54.0032 103.706C54.4089 102.456 54.7054 101.419 55.0888 100.418C55.2537 99.9869 55.5982 99.6307 55.8613 99.2403C56.0969 99.6526 56.4396 100.036 56.5498 100.482C57.0712 102.591 57.5514 104.713 57.9867 106.843C58.0574 107.19 57.8273 107.603 57.7361 107.986C57.5501 107.991 57.3642 107.995 57.1778 108L55.722 101.649L55.5575 101.641L54.5438 107.28C54.3742 107.281 54.2045 107.283 54.0349 107.285C52.9565 105.612 53.2277 103.43 52.2307 101.538C51.6459 103.349 51.095 105.056 50.544 106.764L50.1498 106.731C50.1019 106.355 49.9373 105.945 50.0256 105.606C50.5243 103.69 51.0585 101.782 51.6455 99.8933C51.7543 99.5443 52.16 99.2951 52.4287 99ZM150.131 98.0114C151.161 98.1057 152.199 98.1429 153.22 98.2927C153.505 98.3347 153.741 98.6881 154 98.8992C153.766 99.0817 153.555 99.376 153.294 99.4261C152.406 99.5974 151.5 99.6819 150.549 99.8062V100.632C151.388 100.973 152.638 101.228 152.649 101.529C152.706 102.959 151.355 102.089 150.494 102.547C150.365 103.897 150.221 105.39 150.077 106.883L149.648 107C149.437 106.533 149.057 106.069 149.043 105.596C148.978 103.408 149.042 101.217 149 99.0289C148.985 98.2014 149.347 97.9394 150.131 98.0114ZM177.542 98.0124C178.856 98.1921 179.563 98.7775 179.555 99.7005C179.553 99.8328 179.458 99.9648 179.396 100.12C178.861 99.8805 178.391 99.5282 177.889 99.4863C177.414 99.4464 176.905 99.7313 176.411 99.8739C176.63 100.301 176.821 100.742 177.085 101.145C177.167 101.27 177.44 101.314 177.636 101.354C179.801 101.788 180.71 103.988 179.377 105.648C178.679 106.515 177.868 107.212 176.498 106.941C175.127 106.669 174.601 105.555 175.48 104.431C175.729 104.604 175.95 104.825 176.225 104.932C176.699 105.118 177.458 105.485 177.651 105.327C178.111 104.954 178.519 104.325 178.538 103.786C178.551 103.429 177.929 102.854 177.468 102.717C175.634 102.172 174.6 100.811 175.146 99.439C175.472 98.6192 176.687 97.8957 177.542 98.0124ZM75.726 98.0204C77.2587 98.1364 78.7931 98.2541 80.3173 98.4496C80.5703 98.482 80.7737 98.9087 81 99.1528C80.6656 99.3637 80.3271 99.7546 79.9973 99.7471C79.3154 99.7318 78.6376 99.5047 78.0061 99.3745C78.0061 101.281 78.0433 103.111 77.9746 104.937C77.9611 105.299 77.5432 105.646 77.3115 106C77.1081 105.657 76.7426 105.32 76.7287 104.97C76.6661 103.35 76.6542 101.725 76.7193 100.105C76.7553 99.2061 76.3616 98.9474 75.579 98.8705C75.0445 98.8181 74.5259 98.6026 74 98.46C74.018 98.3115 74.0356 98.1626 74.0536 98.0137C74.6111 98.0137 75.1714 97.9788 75.726 98.0204ZM106 97C105.295 100.208 104.769 103.181 103.45 106C102.237 104.314 102.086 102.368 101.538 100.445C100.888 102.28 100.261 104.051 99.6345 105.822L99.084 105.865C98.764 105.074 98.3651 104.304 98.141 103.487C97.7063 101.903 97.3522 100.296 97.0105 98.689C96.9551 98.4284 97.1345 98.1192 97.2052 97.8322C97.4515 98.063 97.8235 98.2512 97.9224 98.5323C98.3566 99.768 98.7081 101.032 99.101 102.283C99.1534 102.45 99.2689 102.598 99.4296 102.89C101.255 97.5946 101.255 97.5946 102.22 97.6423C102.574 99.3146 102.929 100.989 103.35 102.973C103.699 101.624 103.873 100.56 104.261 99.5774C104.599 98.7234 104.213 97.3645 106 97ZM200.475 97.0064C201.578 97.0861 202.703 97.3237 202.989 98.6431C203.04 98.8753 202.901 99.1461 202.861 99.3376C202.128 98.9502 201.568 98.48 200.949 98.3887C200.526 98.3262 200.022 98.7938 199.554 99.0243C199.829 99.3544 200.051 99.9009 200.388 99.9793C202.947 100.573 203.175 102.973 202.428 104.394C201.941 105.318 201.124 106.066 200.015 105.995C199.056 105.934 198.247 105.335 198.017 104.327C197.943 104.001 198.129 103.617 198.196 103.26C198.553 103.376 198.927 103.458 199.262 103.618C199.687 103.82 200.253 104.375 200.454 104.263C200.918 104.004 201.468 103.439 201.477 102.989C201.487 102.542 200.937 102.017 200.518 101.65C200.171 101.345 199.642 101.246 199.221 101.009C198.242 100.458 197.951 99.6509 198.338 98.609C198.703 97.6282 199.355 96.9253 200.475 97.0064ZM128.21 97.3433C128.524 97.3821 129 97.9967 129 98.3461C129 99.0369 128.427 99.0158 127.892 98.8609C127.633 98.7861 127.36 98.7659 126.903 98.6889C127.046 100.123 127.222 101.451 127.296 102.784C127.343 103.636 127.275 104.5 127.18 105.35C127.153 105.596 126.804 106.026 126.691 105.999C126.393 105.926 126.095 105.689 125.892 105.437C125.732 105.238 125.646 104.923 125.64 104.657C125.598 102.961 125.548 101.265 125.585 99.5698C125.603 98.7558 125.293 98.4662 124.543 98.3501C124.077 98.2783 123.648 97.9554 123 97.65C124.944 96.539 126.594 97.1462 128.21 97.3433ZM228.084 79.6404H193.133C195.646 83.2052 198.2 86.8283 200.753 90.4515C201.017 87.9775 201 85.495 201.035 83.0129C201.04 82.6539 201.206 82.1059 201.454 81.994C201.704 81.8808 202.262 82.0978 202.489 82.3488C203.647 83.6256 204.803 84.913 205.84 86.2876C207.107 87.9677 208.255 89.738 209.455 91.4691C209.586 91.4457 209.718 91.4223 209.849 91.3989C209.692 89.0015 209.566 86.6016 209.361 84.2084C209.293 83.4112 209.504 82.9491 210.274 82.8096C214.354 85.7886 218.066 89.1253 221.084 93.5993C221.219 90.8773 220.901 88.4199 221.537 86.6182C223.554 88.3982 225.476 90.36 227.665 91.9495C229.83 93.5223 232.266 94.7191 234.583 96.0806C231.787 90.7731 229.766 85.3576 228.084 79.6404ZM74.0211 78.1296H28.7872C31.2115 84.4029 34.3118 90.3566 39.8704 94.817C39.8335 94.4664 39.8343 94.2005 39.7746 93.9495C39.5029 92.8114 39.1239 91.6908 38.9535 90.5387C38.714 88.9156 38.5991 87.2717 38.4817 85.6333C38.4228 84.8117 38.399 83.9719 38.5008 83.1584C38.6089 82.2948 39.3159 82.0531 39.9942 82.6032C40.5855 83.0827 41.1103 83.6434 41.6897 84.1382C43.2073 85.4346 44.7388 86.7147 46.4861 88.1885C46.6815 85.9183 46.1928 83.8196 47.9956 82.2076C49.0952 83.5864 50.1507 84.91 51.2418 86.2782C51.6267 85.1363 51.8865 84.1 52.3308 83.1508C52.6 82.5756 53.1553 82.1352 53.5821 81.6345C54.0251 82.1335 54.549 82.582 54.8975 83.1406C56.2569 85.3227 56.4472 87.8401 56.8054 90.4519C61.1872 87.7954 64.8238 84.4705 67.9034 80.4305C69.1209 82.0489 70.2764 83.5852 71.4671 85.1687C72.3382 82.7675 73.1288 80.5887 74.0211 78.1296ZM159.202 79.1124H141.35C142.847 83.6575 144.323 88.1374 145.788 92.5829C147.715 89.073 149.594 85.6154 151.525 82.1884C151.727 81.8302 152.236 81.4715 152.621 81.4511C152.895 81.4362 153.323 81.9387 153.468 82.2978C154.264 84.2672 154.993 86.2638 155.783 88.3514C156.93 85.2529 158.032 82.2744 159.202 79.1124ZM81.9556 57.458C77.6051 57.4929 73.2555 57.5878 68.9064 57.6933C67.803 57.7201 66.7025 57.8873 65.4978 57.9996C65.4978 59.6793 65.4453 61.3347 65.5228 62.9837C65.5559 63.684 65.7102 64.4681 66.0739 65.0459C67.1205 66.7072 67.0556 68.3422 65.7191 69.6539C64.2965 71.0494 62.0838 71.3497 60.8104 70.0725C59.236 68.4937 58.7117 66.3584 60.6544 64.654C60.8333 64.497 60.9015 64.1167 60.8867 63.8474C60.7786 61.8988 60.6357 59.9524 60.5094 58.0885C57.5388 58.0885 54.8458 58.083 52.1523 58.0898C45.6091 58.1055 39.0654 58.1179 32.5221 58.1557C31.6057 58.1609 30.6909 58.3357 29.7728 58.3655C29.0865 58.3876 28.9368 58.7454 28.9513 59.3364C28.9708 60.1481 28.9979 60.9641 28.9394 61.7721C28.7325 64.637 28.4913 67.499 28.262 70.3623C28.2404 70.6303 28.1908 70.8975 28.1899 71.1651C28.1832 72.8405 28.1855 74.5159 28.1855 76.2798C28.5087 76.2798 28.8487 76.2764 29.1891 76.2802C35.8531 76.3517 42.5176 76.407 49.1817 76.501C59.3874 76.6448 69.5927 76.8461 79.7992 76.9665C89.8154 77.0843 99.8325 77.1243 109.849 77.2137C114.164 77.2524 118.477 77.3375 122.792 77.386C138.585 77.563 154.379 77.7344 170.172 77.9059C177.544 77.9858 184.915 78.0505 192.287 78.1403C204.227 78.2866 216.168 78.4385 228.108 78.6202C229.03 78.6347 229.444 78.3688 229.462 77.4238C229.519 74.4568 229.574 71.4884 229.7 68.5235C229.781 66.6073 229.974 64.6949 230.138 62.7825C230.2 62.0537 230.074 61.6172 229.183 61.6087C227.988 61.5971 226.795 61.5196 225.602 61.4384L224.707 61.3777C220.237 61.0803 215.769 60.7488 211.298 60.4757C209.112 60.3425 206.919 60.3447 204.734 60.2175C203.519 60.1464 202.315 59.8963 201.1 59.7975C199.629 59.678 198.151 59.6333 196.517 59.5482C196.517 60.6446 196.513 61.6023 196.518 62.56C196.525 64.1316 195.941 65.636 196.888 67.2722C198.179 69.5011 196.727 72.0185 194.139 72.5742C192.569 72.9111 191.629 72.5865 190.842 71.4348C189.964 70.1525 189.696 68.2265 190.633 67.3752C191.674 66.4281 191.523 65.3722 191.533 64.2579C191.545 63.0586 191.453 61.852 191.56 60.6629C191.662 59.5304 191.177 59.3002 190.18 59.2917C184.871 59.2466 179.563 59.1564 174.255 59.0726C169.792 59.0024 165.328 58.9713 160.867 58.8301C155.261 58.6522 149.657 58.3655 144.052 58.1545C141.092 58.043 138.129 57.9332 135.168 57.9277C131.009 57.92 126.848 58.1047 122.691 58.0387C113.991 57.9009 105.294 57.6146 96.5944 57.4652C91.7158 57.3814 86.8346 57.4193 81.9556 57.458ZM192.907 45.6582C192.885 46.6142 193.092 47.5783 193.041 48.5309C192.875 51.6634 192.552 54.7896 192.45 57.923C192.344 61.1535 192.392 64.3907 192.452 67.6228C192.466 68.3469 192.705 69.1161 193.028 69.7722C193.41 70.5478 194.077 70.5405 194.567 69.8326C194.773 69.5335 194.934 69.157 194.979 68.7983C195.242 66.7209 195.624 64.6413 195.666 62.5562C195.766 57.6299 195.698 52.7007 195.698 47.7723C195.775 47.7719 195.852 47.7714 195.93 47.771V46.0339L195.926 45.8019C195.926 45.7633 195.927 45.7249 195.931 45.6867C196.025 44.7346 195.604 44.1011 194.683 43.936C193.867 43.7901 192.93 44.6908 192.907 45.6582ZM62.8637 42.27C62.0346 42.2487 61.562 43.0775 61.5581 43.993C61.5573 44.2249 61.5488 44.4568 61.5594 44.6882C61.6336 46.3424 61.782 47.9965 61.7675 49.6498C61.7544 51.181 61.5683 52.7104 61.4594 54.2255C61.726 58.1141 61.9515 61.9767 62.2906 65.8295C62.3546 66.5562 62.3754 67.7883 63.4352 67.7236C64.4639 67.6607 64.614 66.5626 64.5907 65.6534C64.5402 63.6951 64.4101 61.7389 64.3766 59.7805C64.3381 57.5023 64.3974 55.2227 64.3584 52.9444C64.3253 50.9857 64.1753 49.0291 64.1524 47.0703C64.1401 46.0407 64.341 45.009 64.3491 43.9781C64.3563 43.0162 63.6467 42.2908 62.8637 42.27Z" fill="black"/>
<path d="M214.501 117.999L148 126.164L156.165 192.665L222.666 184.499L214.501 117.999Z" fill="#7DF283"/>
<path fill-rule="evenodd" clip-rule="evenodd" d="M205.013 151.911C204.892 154.389 204.87 156.592 204.661 158.777C204.027 165.429 200.111 169.421 193.834 171.701C185.185 174.841 177.564 173.394 171.523 166.299C170.311 164.874 169.75 162.904 168.998 161.142C168.503 159.982 169.014 159.275 170.297 158.998C175.006 157.985 179.693 156.888 184.406 155.899C190.5 154.621 196.61 153.413 202.717 152.19C203.34 152.065 203.983 152.033 205.013 151.911ZM199.818 154.249C191.316 156.023 183.013 157.755 174.284 159.576C174.527 160.907 174.745 162.235 175.033 163.548C175.085 163.783 175.404 164.095 175.644 164.14C176.718 164.343 177.826 164.664 178.887 164.578C186.269 163.98 193.246 162.05 199.702 158.523C200.002 158.359 200.46 158.035 200.437 157.822C200.314 156.692 200.062 155.574 199.818 154.249ZM171.41 144.649C173.998 145.152 175.368 147.045 174.888 149.45C174.441 151.682 172.403 152.96 170.037 152.531C167.068 151.993 165.943 149.604 166.12 147.487C166.303 145.297 168.668 144.115 171.41 144.649ZM200.365 139.653C202.966 140.158 204.362 142.044 203.894 144.42C203.44 146.724 201.376 148.006 198.92 147.509C196.5 147.019 194.563 144.502 195.126 142.391C195.594 140.64 197.314 138.859 200.365 139.653Z" fill="black"/>
</svg>
