<svg width="400" height="310" viewBox="0 0 400 310" fill="none" xmlns="http://www.w3.org/2000/svg">
<path fill-rule="evenodd" clip-rule="evenodd" d="M212.669 53.1222C211.974 50.7695 214.387 47.3289 216.041 46C215.928 47.7267 215.046 49.115 214.122 50.569L214.122 50.569C213.609 51.3767 213.083 52.2046 212.669 53.1222ZM160.356 91.8888C165.704 89.9234 168.983 82.1401 172.219 74.4604C174.634 68.7267 177.026 63.0507 180.235 59.8966L180.229 59.8991C180.755 58.1808 182.06 57.9961 183.216 59.3812C183.939 59.0962 184.658 58.7951 183.951 57.695C184.131 55.96 184.875 56.4917 185.804 57.1555C186.532 57.676 187.374 58.2777 188.147 57.9319C187.372 56.3541 187.845 55.8282 189.13 55.3343C189.688 54.9489 189.62 54.5274 189.142 54.0857C188.925 53.3069 190.957 52.3554 190.608 53.6281C190.63 55.851 191.611 56.4075 192.534 56.9307C193.638 57.5566 194.658 58.1349 193.852 61.4609C191.876 60.9309 194.1 66.0056 194.02 61.6215C195.699 61.7524 196.643 60.7461 197.295 60.0502C197.903 59.4017 198.259 59.0226 198.721 60.0838C198.859 62.041 199.005 61.7387 199.342 61.0417C199.751 60.196 200.44 58.7691 201.737 60.0918C202.323 59.927 202.301 59.3958 202.281 58.9218C202.25 58.1949 202.226 57.6029 204.41 58.6746C205.667 58.4779 204.912 56.5508 204.507 55.78C206.522 57.5264 206.647 56.4424 205.98 54.9529C207.647 56.7082 207.656 56.6892 207.825 56.3459C207.979 56.0336 208.265 55.4528 210.051 55.6957C210.065 55.7847 209.996 56.1651 209.907 56.6568C209.621 58.2267 209.128 60.932 210.489 58.9235C211.682 53.7729 212.25 55.7078 212.669 57.1316C212.945 58.0739 213.157 58.7924 213.44 57.0848C214.04 53.4715 214.581 56.8557 214.998 59.4651C215.335 61.5672 215.59 63.1664 215.732 60.2002C217.948 60.4639 217.351 60.1289 216.525 59.6644C215.513 59.0962 214.157 58.3342 217.181 58.237C218.152 58.1789 218.9 59.2394 219.418 59.9737C220.188 61.0655 220.45 61.4363 220.176 56.338C221.026 54.6243 221.317 52.849 221.509 51.6734C221.837 49.6708 221.88 49.4082 223.914 54.154C225.025 53.7309 224.33 52.332 224.18 52.0298C224.162 51.9935 224.152 51.9731 224.154 51.972C224.156 51.9706 224.178 52.0015 224.229 52.0723L224.229 52.073L224.23 52.0732L224.23 52.0732C224.359 52.2546 224.674 52.6957 225.319 53.5237C224.453 54.1674 224.712 55.5422 224.958 56.8494L224.958 56.8495C225.067 57.4255 225.173 57.9885 225.179 58.4699C227.371 58.4635 227.571 59.528 227.795 60.7176C227.992 61.7694 228.208 62.919 229.836 63.5124C230.627 62.0751 231.398 62.1153 232.486 63.4241C233.747 64.3909 233.967 65.9652 234.174 67.4498C234.407 69.1216 234.624 70.6797 236.296 71.1284C236.689 71.1244 237.789 71.5941 237.436 72.8789C235.007 69.4595 236.647 76.8485 237.624 81.2527L237.624 81.2529C237.921 82.5936 238.157 83.6577 238.199 84.056C238.737 85.425 240.363 89.3394 241.599 87.6572C241.725 86.9198 241.463 85.9674 241.207 85.0353C240.831 83.6722 240.468 82.3527 241.35 81.8133C238.428 81.8629 238.028 80.7076 239.102 77.6363C239.937 78.4212 239.996 79.4139 240.057 80.4457C240.075 80.7439 240.093 81.0453 240.13 81.3459C241.129 79.9207 242.655 82.0003 241.43 81.8116L241.401 81.8123C241.752 82.307 241.9 83.1963 242.055 84.1252C242.329 85.7668 242.623 87.5319 244.092 87.4605C244.33 93.238 246.369 98.4689 248.479 103.88L248.479 103.88L248.681 104.399C250.86 110.253 250.389 113.768 249.968 116.909L249.967 116.911C249.942 117.098 249.918 117.283 249.894 117.467C250.793 123.593 249.612 120.507 248.084 116.52C246.906 113.444 245.523 109.831 244.731 109.498C243.328 111.984 244.269 114.965 245.188 117.876C245.631 119.28 246.069 120.668 246.236 121.975C248.175 128.423 245.505 115.837 244.935 113.207C245.888 113.745 246.175 115.473 246.465 117.221V117.221C246.652 118.346 246.84 119.479 247.208 120.309C249.414 121.234 249.971 125.735 250.5 130.006V130.006C250.793 132.372 251.077 134.668 251.628 136.244C249.564 134.273 249.698 135.382 249.891 136.985C250.114 138.843 250.418 141.366 247.469 140.524C248.996 139.47 248.394 139.278 247.756 139.074C247.302 138.929 246.829 138.778 247.091 138.307C247.129 138.151 247.202 138.002 247.274 137.856L247.274 137.856L247.274 137.856L247.274 137.856C247.473 137.453 247.663 137.067 247.067 136.569C246.582 137.548 245.972 136.548 245.628 135.984C245.227 135.326 245.19 135.265 246.144 139.664C243.259 137.105 245.225 143.245 247.405 150.054L247.405 150.054L247.405 150.055C248.993 155.015 250.695 160.33 250.717 162.894C250.896 164.502 250.8 165.918 250.709 167.26C250.558 169.496 250.42 171.528 251.592 173.906C253.467 177.443 250.564 180.242 250.877 175.918C247.251 171.512 249.413 177.24 251.308 182.258C252.096 184.346 252.838 186.31 253.097 187.372C254.135 190.221 254.807 193.122 255.471 195.986C256.692 201.262 257.885 206.411 261.283 210.866C261.665 211.49 261.269 211.706 260.902 211.907C260.709 212.013 260.524 212.114 260.464 212.267C262.358 213.428 262.862 215.857 263.362 218.266C263.829 220.516 264.293 222.749 265.88 223.914C265.582 224.849 265.441 225.784 265.431 226.717C265.461 226.649 265.49 226.578 265.519 226.508C265.714 226.034 265.898 225.584 266.414 226.094C266.321 226.2 266.233 226.36 266.145 226.521L266.145 226.521C265.941 226.893 265.732 227.275 265.432 227.032C265.517 231.391 268.368 235.707 271.098 239.839C272.524 241.997 273.917 244.106 274.865 246.144C272.823 248.866 271.367 245.838 269.668 242.306C268.776 240.451 267.817 238.457 266.671 237.083C258.584 236.145 254.573 222.709 250.606 209.419C248.508 202.395 246.423 195.41 243.755 190.335C235.232 169.43 243.699 201.399 246.517 207.964C245.787 209.392 246.575 212.251 247.477 215.52C248.499 219.223 249.665 223.452 248.934 226.725C245.608 223.784 246.299 233.094 247.015 242.758C247.56 250.104 248.12 257.654 246.943 260.184C245.353 277.252 243.544 266.027 241.408 252.774C240.113 244.739 238.698 235.958 237.139 232.285C238.714 236.833 238.926 242.334 239.115 247.26C239.252 250.819 239.378 254.078 239.997 256.462C239.913 262.468 237.263 265.443 238.022 256.956C235.976 263.439 235.895 259.694 235.79 254.85C235.723 251.758 235.647 248.217 235.043 246.606C233.048 248.268 233.475 250.714 233.908 253.203C234.249 255.157 234.594 257.137 233.774 258.783C232.873 260.449 232.801 265.154 232.744 268.896C232.668 273.854 232.619 277.119 230.699 269.381C229.12 268.676 228.234 265.145 227.666 262.885C227.274 261.324 227.035 260.37 226.825 261.376L226.816 261.426L226.796 261.536C226.627 262.49 226.218 264.794 225.5 263.255C225.469 261.917 225.488 260.515 225.508 259.086C225.588 253.298 225.675 247.05 222.449 242.74C222.064 243.625 221.933 245.353 221.783 247.348C221.416 252.2 220.93 258.627 216.378 258.337C216.031 257.795 216.3 257.131 216.592 256.409C217.025 255.339 217.508 254.144 216.105 253.041C217.357 249.426 216.771 247.27 215.968 244.322C215.577 242.884 215.134 241.256 214.829 239.178C214.383 236.808 214.502 233.514 214.615 230.373C214.775 225.932 214.924 221.796 213.452 221.004C213.777 225.504 212.805 256.426 211.464 241.093C211.424 237.665 211.331 238.295 211.106 239.816C210.765 242.117 210.123 246.457 208.907 241.864C208.915 241.63 208.927 241.393 208.939 241.154C208.999 239.931 209.06 238.673 208.714 237.56C208.979 232.891 208.369 217.097 207.441 228.78C205.76 226.671 205.634 223.427 205.511 220.266C205.404 217.517 205.3 214.83 204.177 213.006C204.083 215.855 204.345 220.141 204.639 224.935C205.389 237.186 206.342 252.755 202.054 256.129C202.039 255.956 201.994 255.78 201.95 255.605C201.805 255.033 201.663 254.472 202.564 254.057C203.21 252.977 200.528 252.796 200.416 254.206C199.462 252.533 200.137 252.076 200.791 251.632C201.507 251.146 202.199 250.676 200.717 248.653L200.711 248.677C200.428 249.763 200.331 250.136 200.164 250.17C200.076 250.188 199.97 250.115 199.809 250.003C199.608 249.863 199.321 249.664 198.878 249.508C198.368 251.051 198.666 253.043 198.959 254.998C199.356 257.641 199.742 260.215 198.103 261.517C197.362 261.831 197.8 262.345 198.188 262.799C198.399 263.045 198.594 263.274 198.577 263.444C198.886 264.218 197.545 265.487 197.168 264.427C196.1 263.296 195.878 264.031 195.605 264.935C195.401 265.608 195.169 266.375 194.538 266.531C191.257 263.674 190.895 260.406 190.373 255.69L190.339 255.382C190.657 250.786 188.772 248.91 187.054 247.202C185.238 245.394 183.609 243.773 184.975 239.315C184.732 236.774 184.061 239.041 183.261 241.743C182.117 245.605 180.711 250.356 179.912 243.249C179.844 247.212 178.956 246.708 177.93 246.126C177.386 245.817 176.803 245.486 176.283 245.787C176.476 248.481 173.721 251.126 173.577 247.055C172.813 248.345 172.489 249.978 172.269 251.087C171.879 253.053 171.817 253.368 170.205 247.192C168.731 249.174 168.674 251.17 168.616 253.195C168.571 254.8 168.524 256.423 167.772 258.072C166.998 256.936 166.63 256.058 166.236 255.119C165.692 253.822 165.099 252.408 163.319 250.034C161.585 250.239 160.461 252.118 160.348 253.84C161.456 253.636 161.822 253.945 161.513 254.96C161.324 257.152 159.465 260.22 158.674 256.739C160.71 255.025 157.273 251.7 156.691 257.124C155.577 256.592 155.364 253.684 155.173 251.085C154.945 247.973 154.749 245.305 153.078 247.7C154.239 245.602 152.151 243.373 152.612 246.694C150.604 246.512 150.608 247.636 150.612 248.852C150.614 249.516 150.616 250.207 150.291 250.729C147.76 250.016 148.93 246.906 149.941 244.22C150.376 243.064 150.782 241.987 150.849 241.214C153.282 233.899 154.884 225.789 154.057 218.197C153.225 220.068 152.874 222.321 152.524 224.565C151.911 228.496 151.303 232.401 148.123 234.18C148.031 235.678 148.693 235.376 148.999 234.011C150.372 234.923 149.26 236.613 147.766 236.424C146.903 237.887 146.798 240.099 146.695 242.266C146.549 245.345 146.406 248.335 144.105 248.966C143.707 249.577 144.054 250.065 144.348 250.477C144.747 251.038 145.046 251.457 143.229 251.853C144.575 252.228 144.683 253.004 144.8 253.839C144.871 254.355 144.946 254.893 145.317 255.374C146.61 250.865 146.454 251.65 146.012 253.87C145.636 255.757 145.054 258.682 144.98 260.272C144.821 264.414 144.457 262.746 144.054 260.902C143.651 259.056 143.209 257.033 142.896 260.477C143.002 260.719 142.735 261.142 142.506 261.507C142.458 261.583 142.411 261.656 142.37 261.725C141.257 261.652 141.295 260.558 141.334 259.442C141.381 258.111 141.428 256.749 139.524 257.052C138.425 255.216 138.487 253.237 138.549 251.262C138.604 249.498 138.659 247.738 137.886 246.088C137.738 245.775 137.89 245.163 138.047 244.536C138.299 243.529 138.561 242.481 137.609 242.555C137.408 243.244 137.336 244.071 137.267 244.86C137.125 246.49 136.997 247.96 135.782 247.722C136.095 248.906 135.533 250.508 134.092 250.263C132.633 249.951 132.624 251.633 132.612 253.792C132.598 256.411 132.58 259.731 129.969 261.047C129.079 259.115 128.336 258.86 127.595 258.606C126.741 258.313 125.89 258.021 124.822 255.161C123.758 256.06 120.558 254.571 123.3 254.475C121.408 253.31 121.909 253.204 122.751 253.027H122.751C123.522 252.864 124.58 252.641 124.348 251.488C123.399 247.307 125.179 243.86 126.949 240.435L126.949 240.435C127.155 240.035 127.362 239.635 127.564 239.235C128.939 237.669 128.961 235.959 128.982 234.363C129.009 232.219 129.034 230.282 132.337 229.182C132.923 228.985 133.622 227.764 132.562 227.993C128.744 230.928 129.603 225.275 130.398 222.967C133.897 190.679 145.982 155.182 157.141 122.407L157.141 122.407L157.141 122.406L157.141 122.406L157.141 122.406C159.388 115.805 161.598 109.314 163.693 102.982C161.783 102.951 161.371 104.93 160.95 106.95C160.596 108.65 160.235 110.38 158.971 110.967C154.683 119.823 152.722 123.464 151.687 125.386C151.152 126.378 150.865 126.912 150.631 127.468C150.36 128.116 150.162 128.794 149.734 130.263L149.733 130.263C149.172 132.188 148.214 135.47 146.176 141.82C141.487 148.148 150.227 120.96 152.146 116.796C152.786 113.753 154.478 110.334 156.185 106.885C158.839 101.524 161.527 96.0924 160.352 91.8928L160.356 91.8888ZM152.821 248.091C152.92 247.962 153.006 247.831 153.078 247.7C152.996 247.818 152.91 247.948 152.821 248.091ZM181.124 60.6667C180.723 60.5485 180.31 60.4267 180.263 59.8855C181.387 59.4344 183.288 59.6906 183.582 60.9309C182.98 61.3328 182.95 61.9204 182.919 62.5062C182.893 63.0029 182.868 63.4982 182.494 63.8778L182.484 63.8752C181.872 63.7208 181.564 63.6431 181.462 63.4542C181.358 63.2632 181.465 62.9585 181.68 62.3457L181.731 62.1996C182.2 60.9836 181.674 60.8285 181.124 60.6667ZM232.337 261.091C233.79 259.011 233.028 254.001 232.401 250.877C231.621 252.242 231.876 254.559 232.129 256.865C232.294 258.367 232.459 259.864 232.337 261.091ZM230.442 234.678C230.149 237.167 230.434 238.307 232.281 240.09C232.182 239.603 232.122 239.087 232.062 238.572C231.88 237.008 231.698 235.445 230.442 234.678ZM179.362 233.598C178.451 234.718 177.716 241.282 178.326 242.475C178.497 241.013 178.661 239.606 178.822 238.228C179.004 236.66 179.183 235.13 179.362 233.598ZM226.122 180.422C225.171 181.342 225.604 184.437 226.52 185.132L226.51 185.013L226.509 185.008C226.376 183.45 226.247 181.936 226.122 180.422ZM157.201 251.171C157.835 250.813 159.304 249.934 158.056 249.416C156.339 248.966 156.694 249.875 157.112 250.942L157.112 250.943L157.112 250.944L157.113 250.946C157.142 251.02 157.172 251.095 157.201 251.171ZM155.9 151.335C154.378 151.408 153.977 153.543 155.258 153.889C155.482 153.002 155.691 152.17 155.9 151.335ZM155.378 150.633C156.715 149.99 157.08 149.055 156.478 147.75C156.141 148.633 155.804 149.517 155.378 150.633ZM161.456 239.07C162.179 239.07 162.536 237.147 162.111 236.529C161.312 236.754 161.378 237.46 161.444 238.169C161.473 238.482 161.502 238.797 161.456 239.07ZM234.136 246.353C235.167 245.803 235.167 245.132 234.557 244.285C233.549 244.803 233.425 245.453 234.136 246.353ZM179.976 241.595C181.101 241.266 181.153 240.949 180.43 239.018C180.356 239.444 180.281 239.869 180.201 240.318L180.201 240.32L180.2 240.326L180.089 240.957L180.03 241.289L179.976 241.595ZM208.132 220.369C207.08 221.313 207.57 222.461 208.465 222.951L208.374 222.237C208.286 221.556 208.21 220.962 208.132 220.369ZM186.678 60.0539V60.054C186.651 60.6982 186.63 61.181 187.348 60.3729C187.926 61.7058 188.231 58.9356 186.681 59.4013C186.697 59.609 186.687 59.84 186.678 60.0534V60.0536V60.0537V60.0539ZM154.96 155.202C154.443 154.25 153.222 156.274 154.121 156.362C154.373 156.053 154.6 155.724 154.828 155.394L154.829 155.392L154.899 155.29L154.96 155.202ZM144.345 247.184C144.883 247.919 145.253 248.171 145.405 247.204C145.136 246.497 144.799 246.441 144.345 247.184ZM246.573 223.469C246.216 223.55 246.294 223.996 246.376 224.464C246.423 224.736 246.472 225.016 246.437 225.235C247.685 224.693 247.421 224.264 246.573 223.469ZM141.246 256.321V255.021C139.849 255.928 139.134 256.486 141.246 256.321ZM163.97 85.4131C151.789 105.378 143.657 133.667 136.239 159.474L135.69 161.384C133.793 164.365 134.172 162.468 134.73 159.674C135.229 157.175 135.872 153.959 135.16 152.869C136.52 152.045 136.214 151.194 135.84 150.155C135.668 149.676 135.481 149.157 135.437 148.581C133.329 151.837 133.16 149.127 134.457 146.871C136.286 144.587 136.486 141.867 136.682 139.206C136.756 138.21 136.829 137.222 136.986 136.268C140.228 128.98 143.135 120.83 146.131 112.428C152.177 95.4733 158.59 77.4922 168.863 63.4925C168.369 66.2199 167.213 68.6974 166.253 70.7562C164.943 73.5644 163.996 75.5937 165.587 76.416C165.936 78.0424 165.297 79.305 164.661 80.5628C163.932 82.0033 163.207 83.4376 163.97 85.4051V85.4131ZM278.427 245.409C277.038 240.499 259.224 198.942 265.881 223.906C267.425 225.954 269.4 230.453 271.34 234.877C274.372 241.787 277.323 248.511 278.427 245.409ZM163.958 85.441C167.523 78.5958 165.809 85.1158 164.279 88.2593C162.721 90.7783 163.135 89.1839 163.564 87.5356L163.564 87.5355C163.8 86.6276 164.04 85.7033 163.958 85.441ZM187.548 53.0459L187.548 53.0418V53.0458L187.548 53.0459ZM184.42 51.8727C184.841 52.3123 185.745 53.2577 187.548 53.0459C187.469 53.5315 187.15 53.8033 186.842 54.066C186.314 54.5154 185.818 54.9381 186.613 56.358C185.113 56.092 185.035 55.4993 184.935 54.7389C184.863 54.1909 184.779 53.5558 184.144 52.8933C184.055 51.4909 184.061 51.4969 184.42 51.8727ZM210.047 55.6915C208.862 53.7178 209.17 53.1277 210.183 51.1866C210.319 50.9245 210.469 50.6378 210.629 50.3197C210.577 50.9418 210.622 51.7897 210.667 52.6311V52.6313V52.6315V52.6316V52.6317V52.6319V52.632C210.76 54.3967 210.852 56.1319 210.047 55.6915ZM250.128 141.413C249.8 141.153 249.442 140.871 248.946 141.009C249.396 143.037 252.612 144.097 251.48 141.355C250.924 142.041 250.55 141.746 250.128 141.413ZM147.545 141.76C147.639 140.262 148.425 139.04 149.211 137.816C149.267 137.729 149.324 137.641 149.38 137.553C149.625 138.231 148.428 141.748 147.545 141.76ZM168.366 77.1184C168.779 78.0017 168.137 79.5072 167.113 80.1456C166.844 78.8327 167.535 77.9776 168.366 77.1184ZM206.715 230.888C207.626 231.229 207.638 231.454 206.715 234.859V230.888ZM241.591 76.4318C240.009 76.3716 239.885 75.7132 239.825 74.1755C240.909 74.7898 241.322 75.2796 241.591 76.4318ZM130.242 262.392C130.296 262.628 130.361 262.865 130.427 263.104C130.654 263.927 130.886 264.766 130.671 265.6C129.716 265.355 129.374 262.516 130.242 262.392ZM128.129 262.39C128.054 262.031 127.972 261.637 127.877 261.175C127.026 263.106 127.186 263.652 128.367 263.536C128.292 263.169 128.216 262.804 128.13 262.392L128.129 262.39ZM255.679 137.027C255.69 137.283 255.806 137.59 255.925 137.904C256.152 138.502 256.387 139.124 255.924 139.464C255.257 139.379 254.852 136.93 255.679 137.027ZM239.005 75.3301C238.825 74.9299 238.637 74.5126 237.877 74.6815C237.713 75.5888 238.584 76.8776 239.275 75.7856C239.157 75.668 239.082 75.5006 239.005 75.3301ZM134.987 251.351C135.228 252.644 134.586 253.379 133.951 251.986C133.971 251.801 134.698 250.91 134.987 251.351ZM274.39 247.754L274.39 247.755C274.345 247.996 274.299 248.235 274.223 248.396C274.876 248.779 274.962 248.189 275.048 247.605C275.081 247.381 275.114 247.158 275.178 246.991C274.614 246.571 274.5 247.172 274.39 247.754ZM195.935 268.948C195.84 268.79 195.75 268.654 195.67 268.533C195.269 267.924 195.124 267.704 195.771 267.121C196.41 267.733 196.341 267.908 195.99 268.808L195.935 268.948ZM218.37 54.0335C217.727 55.0131 218.618 56.7956 219.309 56.3861C219.177 56.0569 219.05 55.7384 218.924 55.4214L218.908 55.3817L218.905 55.3748C218.73 54.9343 218.555 54.4956 218.37 54.0335ZM206.707 52.6162V54.4389C206.564 54.2829 206.431 54.1498 206.314 54.0331L206.314 54.033C205.709 53.4289 205.543 53.2622 206.707 52.6162ZM132.331 261.394C132.417 261.513 132.502 261.631 132.566 261.749V259.758C131.611 260.394 131.979 260.905 132.331 261.394ZM253.254 142.948L253.253 142.947L253.251 142.942C252.971 142.382 252.691 141.822 252.351 141.15C253.1 141.318 253.401 141.918 253.254 142.948ZM137.028 251.661C137.04 251.493 137.053 251.299 137.087 251.07C135.81 251.588 135.822 251.769 136.436 252.72C136.974 252.45 136.992 252.182 137.028 251.661ZM206.963 229.004L206.973 229.055L206.973 229.055C207.091 229.609 207.177 230.019 206.361 230.097C206.378 229.946 206.367 229.778 206.355 229.615C206.324 229.149 206.294 228.722 206.927 228.829C206.939 228.888 206.951 228.947 206.963 229.004ZM252.644 130.589C252.694 130.787 252.745 130.986 252.736 131.145C253.422 131.211 253.268 130.766 253.103 130.291C253.036 130.099 252.968 129.902 252.953 129.732C252.423 129.721 252.532 130.153 252.644 130.589ZM244.892 86.2449C244.963 86.4435 245.036 86.6442 245.048 86.8139C245.682 86.7942 245.515 86.3431 245.342 85.8774C245.269 85.6798 245.195 85.4795 245.18 85.3084C244.562 85.3281 244.725 85.7808 244.892 86.2449Z" fill="#7DF283"/>
<path fill-rule="evenodd" clip-rule="evenodd" d="M204.599 99.7968C207.993 101.088 210.737 103.357 211.581 107.233C211.638 107.494 211.646 107.776 211.624 108.044C211.414 110.541 211.278 113.049 210.943 115.53C210.736 117.058 210.348 118.591 209.812 120.036C209.094 121.974 208.727 123.938 208.682 125.99C208.652 127.322 208.551 128.653 208.489 129.838C212.343 130.74 216.059 131.5 219.713 132.491C225.083 133.949 230.295 135.896 235.299 138.337C239.91 140.587 244.182 143.42 248.168 146.655C251.327 149.218 253.455 152.446 253.533 156.653C253.567 158.48 252.734 160.149 251.603 161.591C249.849 163.825 247.622 165.496 244.995 166.512C241.297 167.942 237.579 169.352 233.781 170.472C232.277 170.915 231.815 171.676 231.69 172.988C231.615 173.771 231.63 174.567 231.495 175.338C231.344 176.202 231.779 176.51 232.49 176.724C235.347 177.584 238.191 178.491 241.058 179.318C241.563 179.464 242.22 179.473 242.694 179.273C246.784 177.549 251.014 176.313 255.453 176.233C260.767 176.137 265.978 176.792 270.572 179.85C271.213 180.277 271.797 180.46 272.493 180.019C275.458 178.144 278.691 179.007 281.842 179.146C282.632 179.18 283.273 180.445 283.211 181.719C283.046 185.018 282.848 188.314 282.657 191.611C282.22 199.147 281.779 206.683 281.341 214.219C280.74 224.539 280.12 234.859 279.559 245.181C279.44 247.373 279.542 249.576 279.542 252.049C277.289 252.049 275.204 252.096 273.124 252.009C272.73 251.992 272.255 251.519 271.993 251.136C271.074 249.784 270.156 248.42 269.396 246.977C269.065 246.347 269.119 245.512 268.948 244.471C267.964 245.259 267.119 245.861 266.361 246.559C264.373 248.385 262.198 249.878 259.515 250.43C254.939 251.372 250.545 251.198 246.758 247.995C244.029 245.686 242.79 242.721 242.724 239.124C242.661 235.69 243.769 232.755 246.105 229.965C244.184 229.837 242.526 229.691 240.864 229.622C237.189 229.469 233.513 229.304 229.836 229.236C225.154 229.149 220.471 229.139 215.789 229.144C215.415 229.144 214.896 229.415 214.692 229.725C212.472 233.089 210.307 236.489 208.114 239.871C207.679 240.543 207.74 240.979 208.414 241.527C210.443 243.176 212.422 244.89 214.355 246.651C214.849 247.101 215.227 247.774 215.438 248.418C215.836 249.632 215.379 250.513 214.07 250.75C212.241 251.082 210.369 251.322 208.514 251.329C205.232 251.342 201.943 251.243 198.671 251C197.323 250.901 196.01 250.309 194.457 249.879C193.036 251.144 190.908 250.743 188.932 250.947C187.388 251.107 185.812 251.199 184.27 251.079C181.595 250.872 178.92 250.559 176.273 250.127C174.967 249.913 174.613 248.974 175.359 247.841C176.012 246.851 176.855 245.964 177.722 245.147C179.348 243.615 181.051 242.166 182.813 240.604C182.165 239.284 181.471 237.986 180.882 236.641C180.004 234.634 179.2 232.595 178.365 230.57C177.581 228.668 177.587 228.746 175.577 228.897C173.215 229.074 170.842 229.097 168.474 229.188C166.138 229.278 163.802 229.386 161.466 229.455C159.25 229.521 157.032 229.543 154.815 229.592C151.894 229.658 148.974 229.757 146.053 229.795C143.322 229.83 140.589 229.841 137.859 229.783C136.985 229.765 136.657 230.012 136.688 230.895C136.735 232.258 136.682 233.623 136.704 234.987C136.723 236.149 135.272 238.528 134.143 238.609C132.766 238.706 131.355 238.387 129.97 238.179C129.812 238.155 129.627 237.688 129.613 237.418C129.486 234.983 129.395 232.546 129.295 230.159H116.968C116.968 232.855 116.942 235.339 116.977 237.823C116.998 239.294 117.189 240.765 117.149 242.233C117.134 242.762 116.792 243.431 116.382 243.77C115.391 244.588 114.309 245.316 113.189 245.945C112.629 246.26 111.903 246.411 111.254 246.407C109.456 246.395 107.658 246.246 105.859 246.183C104.921 246.151 104.546 245.864 104.552 244.776C104.57 241.818 104.418 238.857 104.285 235.899C104.147 232.862 103.97 229.827 103.778 226.793C103.584 223.724 103.338 220.658 103.141 217.59C103.003 215.45 102.931 213.305 102.791 211.166C102.649 208.999 102.448 206.837 102.292 204.671C102.143 202.616 102.028 200.559 101.882 198.504C101.726 196.291 101.531 194.08 101.392 191.865C101.24 189.457 101.132 187.047 101.005 184.638C100.957 183.728 101.454 183.371 102.29 183.346C105.658 183.24 108.855 183.992 111.921 185.337C112.166 185.445 112.381 185.877 112.409 186.177C112.491 187.071 112.465 187.974 112.498 188.872C112.52 189.489 112.569 190.104 112.621 190.964C113.22 190.422 113.656 190.072 114.039 189.673C119.697 183.776 126.741 180.904 134.707 179.752C141.843 178.721 148.437 180.594 154.968 182.976C159.594 184.662 164.01 186.809 168.184 190.134C168.184 189.344 168.339 188.758 168.16 188.307C166.535 184.227 165.341 180.037 164.782 175.674C164.713 175.137 164.707 174.592 164.687 174.269C161.847 173.339 159.084 172.561 156.42 171.523C154.277 170.688 152.293 169.483 150.834 167.603C148.833 165.026 148.811 162.269 149.958 159.319C151.272 155.939 153.256 153.086 155.818 150.516C163.029 143.279 171.572 138.228 181.082 134.762C184.989 133.339 189.003 132.212 192.959 130.921C193.21 130.84 193.548 130.518 193.561 130.292C193.663 128.38 193.722 126.464 193.74 124.548C193.745 123.985 193.701 123.357 193.462 122.865C192.087 120.047 191.344 117.097 191.287 113.953C191.222 110.397 191.791 106.933 193.456 103.823C195.623 99.7734 200.545 98.254 204.599 99.7968ZM275.733 179.646C275.733 182.769 275.771 185.7 275.72 188.627C275.681 190.906 275.496 193.181 275.437 195.459C275.361 198.396 275.389 201.336 275.297 204.273C275.161 208.631 274.958 212.987 274.788 217.343C274.78 217.538 274.821 217.735 274.817 217.93C274.753 220.821 274.727 223.714 274.606 226.603C274.491 229.347 274.228 232.087 274.115 234.832C273.983 238.04 273.923 241.252 273.871 244.462C273.834 246.681 273.864 248.901 273.864 251.094C275.339 251.013 276.725 250.936 278.206 250.853C278.306 249.702 278.447 248.539 278.503 247.372C278.859 240.11 279.17 232.846 279.545 225.585C280.287 211.218 281.067 196.854 281.815 182.487C281.947 179.941 282.177 180.368 279.746 180.107C278.377 179.96 277.009 179.793 275.733 179.646ZM212.217 180.685C207.36 182.666 204.499 186.731 202.61 191.41C201.365 194.492 200.53 197.754 199.686 200.982C198.648 204.947 197.863 208.97 197.804 213.097C197.781 214.739 197.827 216.386 197.717 218.023C197.529 220.843 197.247 223.656 196.997 226.471C196.807 228.617 196.605 230.761 196.408 232.906C195.998 237.35 195.52 241.788 195.206 246.238C195.044 248.531 195.813 249.596 197.514 249.85C199.131 250.092 200.764 250.269 202.395 250.36C203.989 250.449 205.595 250.468 207.189 250.384C209.318 250.272 211.444 250.064 213.564 249.827C214.51 249.721 214.7 249.027 214.254 248.297C213.872 247.673 213.351 247.105 212.798 246.62C210.509 244.616 208.174 242.666 205.883 240.665C205.43 240.269 205.099 239.734 204.711 239.263L205.019 238.97C205.644 239.394 206.27 239.82 206.922 240.262C209.464 236.273 212.101 232.356 214.499 228.296C216.063 225.647 217.289 222.796 218.65 220.027C220.698 215.861 222.786 211.713 224.753 207.509C226.592 203.58 227.894 199.45 228.497 195.149C228.789 193.06 228.979 190.896 228.766 188.813C228.496 186.175 226.806 184.216 224.833 182.513C220.998 179.202 216.455 178.957 212.217 180.685ZM181.591 180.832C175.921 181.266 172.052 184.578 169.468 189.455C167.269 193.604 167.454 198.124 168.427 202.468C169.36 206.63 170.794 210.71 172.354 214.69C174.511 220.191 176.975 225.573 179.343 230.989C180.638 233.951 182.008 236.88 183.396 239.941C184.278 239.391 184.996 238.943 185.715 238.496C185.796 238.587 185.877 238.678 185.958 238.77C185.754 239.048 185.595 239.381 185.339 239.598C183.069 241.524 180.761 243.406 178.51 245.355C177.602 246.141 176.754 247.015 175.986 247.938C175.539 248.476 175.48 249.162 176.434 249.335C177.35 249.501 178.277 249.662 179.204 249.703C182.206 249.837 185.21 249.955 188.214 249.998C189.689 250.019 191.173 249.922 192.641 249.765C193.626 249.659 194.395 249.214 194.44 247.997C194.529 245.584 194.634 243.169 194.835 240.764C195.184 236.591 195.72 232.431 195.98 228.254C196.337 222.501 196.635 216.739 196.721 210.978C196.784 206.789 196.514 202.591 196.298 198.403C196.105 194.677 195.238 191.113 193.596 187.727C191.271 182.933 186.784 180.435 181.591 180.832ZM248.525 230.098C248.222 230.077 247.807 230.354 247.59 230.614C245.471 233.162 244.105 235.874 244.247 239.432C244.417 243.681 246.683 247.117 250.342 248.785C252.558 249.794 254.874 249.691 257.222 249.524C260.312 249.304 262.829 247.885 264.946 245.772C266.158 244.563 267.385 243.523 269.417 243.127C269.417 239.567 269.429 236 269.397 232.433C269.394 232.122 269.126 231.565 268.936 231.544C267.596 231.396 266.244 231.358 264.608 231.27C264.608 233.779 264.571 236.119 264.624 238.458C264.649 239.526 263.885 240.43 262.797 240.377C262.133 240.344 261.47 240.262 260.806 240.235C259.05 240.162 257.66 238.603 257.691 236.797C257.726 234.854 257.7 232.909 257.7 230.842C254.503 230.573 251.516 230.304 248.525 230.098ZM273.885 197.911C273.576 198.792 273.16 199.654 272.99 200.561C272.858 201.268 273.042 202.032 273.069 202.772C273.157 205.153 273.351 207.538 273.287 209.915C273.224 212.255 272.963 214.597 272.649 216.918C272.547 217.67 271.737 218.35 271.704 219.083C271.539 222.753 271.532 226.43 271.443 230.104C271.435 230.471 271.321 231.109 271.138 231.155C269.894 231.475 270.221 232.326 270.318 233.161C270.412 233.972 270.472 234.793 270.459 235.609C270.415 238.151 270.539 240.722 270.202 243.227C269.859 245.779 270.909 247.654 272.562 249.477C272.644 246.431 272.694 243.383 272.813 240.339C272.988 235.87 273.203 231.402 273.419 226.935C273.512 225.018 273.715 223.105 273.755 221.188C273.842 217.148 273.812 213.106 273.913 209.067C273.975 206.554 274.209 204.046 274.325 201.533C274.379 200.355 274.334 199.172 274.334 197.991L273.885 197.911ZM102.169 184.439C103.385 204.738 104.589 224.828 105.797 244.998C107.762 245.102 109.419 245.189 111.369 245.292C110.007 225.053 108.659 205.026 107.299 184.81L105.279 184.664C104.266 184.59 103.241 184.516 102.169 184.439ZM108.598 185.212C109.82 205.264 111.029 225.119 112.249 245.158C112.97 244.693 113.369 244.365 113.823 244.156C115.689 243.294 116.092 241.751 115.966 239.871C115.778 237.075 115.629 234.275 115.551 231.474C115.526 230.594 115.244 230.19 114.395 230.323C113.365 230.484 113.071 229.939 113.032 229.06C112.937 226.878 112.917 224.689 112.707 222.517C112.577 221.173 112.871 219.694 111.785 218.534C111.54 218.273 111.402 217.827 111.377 217.455C111.157 214.127 110.957 210.797 110.79 207.465C110.743 206.528 110.938 205.569 110.818 204.646C110.564 202.693 110.796 202.004 112.262 201.068C111.582 199.108 110.878 197.179 110.264 195.22C110.151 194.857 110.339 194.351 110.504 193.96C110.859 193.116 111.592 192.316 111.625 191.476C111.696 189.67 111.421 187.851 111.288 186.039C110.436 185.777 109.668 185.541 108.598 185.212ZM260.484 233.9C260.375 235.759 260.273 237.494 260.167 239.302C261.296 239.177 262.322 239.064 263.457 238.939C263.554 237.328 263.651 235.717 263.75 234.071C262.765 233.995 261.95 233.927 261.134 233.871C260.947 233.858 260.756 233.886 260.484 233.9ZM258.545 233.844C258.568 235.3 258.055 236.778 259.125 238.327C259.756 235.035 259.636 234.043 258.545 233.844ZM130.82 232.232C130.751 232.233 130.683 232.29 130.571 232.341C130.571 233.279 130.594 234.236 130.566 235.191C130.501 237.367 130.724 237.607 132.898 237.584C132.971 237.583 133.043 237.541 133.289 237.463C133.342 236.593 133.412 235.738 133.443 234.882C133.54 232.209 133.535 232.208 130.82 232.232ZM134.47 232.2V236.958C136.301 235.63 135.677 233.921 135.966 232.302C135.422 232.265 135.019 232.237 134.47 232.2ZM258.173 218.131C257.188 220.749 255.646 222.828 253.478 224.507C251.884 225.742 250.473 227.213 248.98 228.579L249.115 229.007C256.167 229.583 263.219 230.159 270.524 230.755V218.801C266.502 218.583 262.342 218.357 258.173 218.131ZM166.281 218.701C163.129 218.736 159.977 218.792 156.825 218.86C152.076 218.964 147.329 219.111 142.581 219.189C138.917 219.249 135.252 219.214 131.589 219.253C128.393 219.288 125.198 219.386 122.002 219.42C119.244 219.449 116.485 219.426 113.424 219.426C113.667 222.712 113.857 225.611 114.134 228.503C114.159 228.765 114.743 229.168 115.073 229.174C117.606 229.22 120.139 229.19 122.672 229.168C124.813 229.15 126.955 229.139 129.096 229.075C132.439 228.976 135.78 228.806 139.124 228.72C142.354 228.638 145.586 228.656 148.816 228.573C152.161 228.488 155.504 228.284 158.85 228.224C163.563 228.14 168.277 228.136 172.991 228.104C174.386 228.094 175.782 228.102 177.36 228.102C175.896 224.77 174.505 221.603 173.228 218.697C170.781 218.697 168.531 218.677 166.281 218.701ZM222.258 216.764C221.883 216.749 221.327 217.084 221.136 217.418C220.539 218.463 220.105 219.601 219.557 220.677C218.34 223.071 217.092 225.449 215.792 227.956C216.294 227.978 216.712 228.012 217.129 228.013C221.032 228.018 224.938 227.921 228.836 228.042C234.629 228.223 240.416 228.562 246.207 228.81C246.555 228.824 247.014 228.732 247.249 228.507C249.622 226.232 252.013 223.971 254.28 221.593C255.194 220.634 255.816 219.394 256.683 218.117C256.054 218.043 255.753 217.981 255.45 217.974C251.232 217.878 247.011 217.849 242.795 217.684C235.948 217.413 229.105 217.043 222.258 216.764ZM113.123 202.188C111.972 202.819 111.671 203.285 111.683 204.548C111.71 207.473 111.692 210.401 111.816 213.321C111.879 214.817 112.17 216.308 112.445 217.785C112.496 218.061 112.941 218.434 113.233 218.462C114.281 218.564 115.342 218.568 116.397 218.551C118.889 218.512 121.381 218.435 123.872 218.379C125.467 218.344 127.061 218.321 128.656 218.289C131.108 218.24 133.56 218.184 136.013 218.138C137.608 218.108 139.203 218.091 140.799 218.068C143.447 218.029 146.096 217.992 148.744 217.952C150.185 217.93 151.625 217.907 153.065 217.88C156.845 217.807 160.624 217.716 164.403 217.665C166.078 217.643 167.754 217.728 169.428 217.711C170.461 217.701 171.492 217.59 172.606 217.519C172.508 217.218 172.456 216.992 172.365 216.783C170.475 212.409 168.67 208.005 167.517 203.359C167.442 203.059 166.907 202.694 166.562 202.667C162.364 202.345 158.306 203.09 154.306 204.329C150.006 205.661 146.082 207.692 142.589 210.533C142.003 211.01 141.223 211.628 141.131 212.268C140.77 214.798 138.721 216.456 136.021 216.844C133.395 217.221 131.61 216.125 130.873 213.678C130.822 213.509 130.711 213.28 130.573 213.229C129.25 212.734 127.915 212.272 126.939 211.926C126.253 212.714 125.809 213.709 125.185 213.839C123.808 214.126 122.659 213.383 121.913 212.026C121.609 212.72 121.346 213.308 121.094 213.9C120.762 214.682 120.147 214.963 119.382 214.719C118.691 214.499 118.277 213.969 118.435 213.188C118.64 212.175 118.892 211.172 119.115 210.203C118.184 209.752 116.974 209.425 116.124 208.683C115.269 207.936 115.68 207.166 117.315 205.853C115.945 204.656 114.573 203.455 113.123 202.188ZM164.089 207.173C163.954 207.707 163.773 208.228 163.613 208.756C164.464 208.843 165.329 208.84 166.147 209.042C166.982 209.248 167.845 209.657 167.812 210.76C167.778 211.93 166.933 212.548 165.989 212.845C165.231 213.083 164.393 213.05 163.831 213.112C163.982 214.019 164.278 214.99 164.239 215.947C164.221 216.382 163.597 216.891 163.141 217.185C161.661 218.143 160.745 217.641 159.565 215.281C159.064 215.737 158.635 216.325 158.067 216.595C157.369 216.926 156.543 217.178 155.794 217.127C154.778 217.056 154.307 215.66 154.941 214.81C155.434 214.149 156.023 213.568 156.509 213.02C156.134 212.706 155.703 212.409 155.347 212.033C154.785 211.439 154.372 210.752 154.889 209.903C155.408 209.051 156.206 208.758 157.1 209.026C157.872 209.257 158.598 209.66 159.474 210.044C159.634 208.413 160.299 207.051 161.577 206.092C161.912 205.841 162.309 205.6 162.704 205.533C163.891 205.333 164.397 205.956 164.089 207.173ZM257.605 197.408V204.225C258.411 204.395 259.208 204.561 260.004 204.728C259.747 205.595 259.491 206.461 259.284 207.156C260.069 207.264 261.068 207.313 262.006 207.577C262.403 207.689 262.997 208.345 262.928 208.599C262.802 209.07 262.326 209.595 261.866 209.791C261.267 210.045 260.543 210 259.943 210.075C260.259 210.898 260.769 211.677 260.795 212.472C260.815 213.077 260.252 213.725 259.854 214.286C259.815 214.341 259.23 214.005 258.838 213.807L258.781 213.779L258.789 213.805C258.701 214.74 258.612 215.675 258.52 216.651C258.937 216.733 259.194 216.815 259.456 216.83C261.215 216.933 262.976 217.008 264.735 217.117C266.296 217.215 267.876 217.224 269.41 217.492C271.035 217.775 271.708 217.562 271.848 215.97C272.117 212.936 272.223 209.887 272.38 206.844C272.389 206.671 272.25 206.49 272.157 206.255C270.784 206.806 270.563 205.37 270.106 205.047C269.246 205.627 268.461 206.567 267.892 206.451C266.91 206.249 266.695 205.133 266.903 204.112C267.032 203.478 267.191 202.85 267.338 202.217C266.603 202.316 265.887 202.499 265.173 202.49C263.967 202.475 263.403 201.476 264.079 200.493C264.589 199.753 265.311 199.16 266.027 198.408C263.159 198.068 260.3 197.728 257.605 197.408ZM159.764 211.118C159.279 210.844 158.838 210.517 158.347 210.336C157.604 210.063 156.827 209.732 156.062 209.72C155.279 209.709 155.003 210.42 155.404 211.096C155.955 212.024 156.74 212.672 157.911 212.44C158.148 212.393 158.393 212.394 158.635 212.373L158.758 212.656C158.449 212.885 158.15 213.131 157.829 213.341C157.117 213.807 156.344 214.19 155.698 214.739C155.39 215.001 155.07 215.663 155.184 215.969C155.439 216.647 156.076 216.972 156.814 216.694C157.986 216.252 158.911 215.519 159.337 214.227C159.414 213.994 159.571 213.79 159.81 213.36C160.033 214.291 160.167 214.987 160.369 215.66C160.739 216.894 161.605 217.482 162.518 216.983C163.065 216.684 163.753 216.078 163.807 215.547C163.863 214.991 163.28 214.326 162.889 213.775C162.638 213.421 162.232 213.187 161.895 212.899L162.078 212.582C162.492 212.582 162.912 212.621 163.321 212.574C164.268 212.463 165.245 212.425 166.138 212.125C166.563 211.983 167.151 211.236 167.081 210.895C166.989 210.453 166.365 209.964 165.88 209.814C164.811 209.481 163.743 209.654 162.794 210.365C162.392 210.666 161.954 210.916 161.532 211.189C161.469 211.124 161.408 211.059 161.345 210.995C162.005 209.639 162.665 208.283 163.352 206.871C161.445 206.528 160.459 207.761 159.764 211.118ZM236.062 198.398C233.474 198.915 231.02 199.576 228.593 200.323C228.3 200.414 228.068 200.939 227.946 201.309C227.521 202.601 227.192 203.924 226.758 205.212C226.444 206.147 225.82 207.014 227.066 207.823C227.351 208.008 227.34 208.806 227.295 209.306C227.243 209.898 227.007 210.473 226.833 211.117C229.026 210.025 229.68 209.884 230.877 210.222C231.956 210.527 232.247 211.116 231.529 211.963C230.848 212.768 229.937 213.376 229.167 214.037C229.733 214.413 230.588 214.715 230.994 215.32C231.446 215.994 231.915 216.172 232.616 216.189C235.154 216.25 237.692 216.325 240.229 216.406C240.973 216.43 241.714 216.513 242.457 216.532C246.791 216.638 251.126 216.709 255.459 216.845C257.039 216.894 257.4 216.358 256.664 214.764C255.747 215.193 254.79 215.713 253.843 214.9C252.768 213.977 253.315 212.865 253.703 211.694C252.758 211.649 251.857 211.378 251.11 211.609C246.425 213.048 242.167 212.059 238.278 209.342C235.964 207.726 236.102 204.942 238.384 203.528C238.846 203.242 239.35 203.024 239.897 202.741C239.74 202.265 239.589 201.804 239.427 201.314C237.536 203.152 236.264 203.667 235.398 202.814C233.734 201.174 234.809 199.819 236.062 198.398ZM225.781 207.702C224.558 210.176 223.338 212.643 222.007 215.334C224.94 215.518 227.586 215.684 230.401 215.861C229.573 214.329 227.983 215.058 226.916 214.241C227.849 213.862 228.707 213.626 229.441 213.181C230.193 212.725 230.824 212.064 231.663 211.364C228.817 209.551 227.217 211.387 225.388 212.841C225.865 211.747 226.329 210.816 226.678 209.844C227.115 208.632 226.843 208.093 225.781 207.702ZM131.133 181.672C125.36 182.991 120.131 185.4 115.835 189.582C114.439 190.941 113.171 192.431 111.804 193.821C111.206 194.429 111.087 195.051 111.335 195.845C112.467 199.46 114.287 202.548 117.592 204.621C120.036 206.155 122.361 207.885 124.832 209.373C126.739 210.521 128.791 211.429 130.628 212.367C131.324 211.349 131.835 210.603 132.346 209.856C132.48 209.934 132.615 210.013 132.749 210.091C132.507 210.686 132.257 211.277 132.024 211.875C131.453 213.338 131.973 214.808 133.276 215.351C135.074 216.102 138.258 215.547 139.645 213.661C140.16 212.961 140.383 212.204 139.497 211.514C139.182 211.269 139.014 210.834 138.779 210.485L139 210.226C139.489 210.386 139.978 210.546 140.486 210.712C144.033 207.317 148.299 205.11 152.904 203.479C157.493 201.854 162.208 201.123 167.211 201.509C167.069 200.005 166.941 198.644 166.791 197.05C164.057 197.48 161.413 197.836 158.794 198.322C156.183 198.806 153.595 199.42 150.997 199.976C156.008 197.827 161.171 196.335 166.721 196.43C166.757 196.158 166.806 195.928 166.813 195.697C166.827 195.229 166.818 194.76 166.818 194.156C160.099 192.088 153.183 191.991 146.257 191.924C153.274 190.704 160.222 190.68 167.108 193.197C167.167 192.921 167.173 192.509 167.342 192.181C167.752 191.385 167.472 190.994 166.766 190.52C162.457 187.625 157.834 185.339 152.928 183.738C149.253 182.539 145.471 181.573 141.665 180.906C138.157 180.29 134.604 180.88 131.133 181.672ZM255.597 208.924C254.492 209.695 253.686 210.257 252.88 210.819C252.915 210.904 252.95 210.989 252.985 211.074L255.247 210.469C255.323 210.535 255.399 210.601 255.475 210.668C255.222 211.038 254.964 211.405 254.717 211.778C254.437 212.201 254.014 212.602 253.935 213.062C253.853 213.538 253.947 214.287 254.26 214.523C254.617 214.792 255.339 214.759 255.827 214.609C256.231 214.484 256.86 213.933 256.812 213.684C256.508 212.12 256.042 210.588 255.597 208.924ZM116.893 207C116.643 207.192 116.381 207.84 116.475 207.936C116.909 208.38 117.441 208.749 117.989 209.049C118.235 209.183 118.604 209.083 118.916 209.106C119.571 209.155 120.226 209.214 120.881 209.269L120.987 209.591C120.691 209.838 120.28 210.025 120.121 210.341C119.647 211.288 119.201 212.264 118.906 213.276C118.831 213.534 119.294 214.115 119.634 214.267C119.843 214.361 120.451 214.003 120.596 213.707C120.951 212.987 121.132 212.181 121.401 211.415C121.547 210.999 121.73 210.596 121.897 210.187C122.028 210.183 122.159 210.179 122.29 210.175C122.222 211.677 122.714 212.727 124.197 213.125C124.859 213.303 125.415 213.295 125.689 212.66C125.96 212.036 126.01 211.374 125.19 210.975C124.634 210.704 124.128 210.325 123.614 209.973C122.038 208.894 120.456 207.823 118.903 206.711C118.108 206.143 117.475 206.554 116.893 207ZM256.79 206.48C256.361 207.411 256.425 208.083 256.959 208.922C257.432 209.665 257.692 210.551 258.002 211.39C258.221 211.985 258.408 212.593 258.598 213.199L258.779 213.772L258.887 213.806C259.965 214.119 260.675 213.629 260.453 212.521C260.293 211.721 259.691 211.002 259.241 210.275C259.095 210.039 258.805 209.892 258.582 209.704C260.136 209.792 261.538 209.947 262.668 208.644C261.158 207.042 259.529 207.675 257.766 208.21C258.541 207.093 259.186 206.162 259.869 205.176C257.853 204.596 257.554 204.818 256.79 206.48ZM243.859 203.375C243.265 203.347 242.658 203.562 242.061 203.68C241.308 203.829 240.501 203.864 239.819 204.174C237.509 205.228 237.294 207.271 239.389 208.702C242.42 210.772 245.836 211.234 249.406 210.739C250.122 210.64 250.815 210.454 250.389 209.367C250.259 209.036 250.489 208.359 250.782 208.107C251.438 207.544 252.237 207.15 253.079 206.623C253.093 206.669 253.094 206.57 253.047 206.532C250.351 204.409 247.218 203.537 243.859 203.375ZM251.156 210.206C252.293 209.415 253.333 208.69 254.373 207.967C254.299 207.845 254.225 207.723 254.15 207.601C252.192 207.114 250.844 208.156 251.156 210.206ZM255.628 197.407H247.041C247.176 197.67 247.202 197.793 247.278 197.856C247.866 198.353 248.104 199.076 247.664 199.619C247.324 200.04 246.586 200.268 246 200.326C245.298 200.396 244.57 200.192 243.833 200.104C244.165 202.132 244.173 202.072 245.966 202.325C247.108 202.488 248.283 202.717 249.335 203.17C251.348 204.039 253.284 205.088 255.306 206.09C256.35 203.375 256.408 200.445 255.628 197.407ZM264.827 200.345C264.568 200.636 264.581 201.171 264.469 201.594C264.847 201.686 265.255 201.919 265.596 201.844C266.659 201.614 267.697 201.267 268.745 200.965L268.894 201.2L268.698 201.501C268.667 201.553 268.638 201.605 268.613 201.659C268.163 202.631 267.621 203.578 267.33 204.596C267.226 204.96 267.738 205.501 267.968 205.961C268.374 205.646 268.918 205.412 269.154 205C269.499 204.396 269.687 203.701 269.996 202.813L270.118 202.471L270.175 202.607C270.673 203.891 270.293 205.556 272.162 205.759C272.227 205.099 272.326 204.521 272.329 203.942C272.332 203.322 272.213 202.703 272.202 202.082C272.165 199.918 272.064 199.73 269.992 199.243C268.116 198.801 266.261 198.736 264.827 200.345ZM244.567 197.526C242.558 197.562 240.557 197.901 238.548 197.986C236.933 198.054 236.131 199.197 235.446 200.31C235.137 200.812 235.293 201.926 235.676 202.417C235.918 202.728 237.165 202.654 237.616 202.304C238.335 201.747 238.784 200.829 239.305 200.035C239.431 199.843 239.389 199.54 239.424 199.289C239.588 199.443 239.752 199.599 239.915 199.754C239.853 200.006 239.745 200.255 239.738 200.509C239.706 201.61 240.34 202.562 241.056 202.47C241.927 202.358 242.789 202.183 243.93 201.99C243.37 200.971 242.874 200.068 242.449 199.295C243.697 199.508 245.037 199.782 246.391 199.935C246.695 199.97 247.247 199.641 247.324 199.375C247.41 199.077 247.183 198.467 246.92 198.332C246.183 197.954 245.352 197.512 244.567 197.526ZM240.626 181.761C237.126 183.883 233.633 186.013 230.162 188.181C229.871 188.362 229.618 188.832 229.6 189.182C229.556 190.019 229.662 190.864 229.715 191.832C233.029 189.722 236.328 187.8 240.294 187.638C236.751 188.691 233.615 190.55 230.487 192.461C229.4 193.126 229.471 193.928 229.57 194.801C231.605 194.096 233.54 193.275 235.555 192.769C237.607 192.253 239.727 191.919 241.837 191.742C243.858 191.572 245.905 191.705 247.941 191.705C246.637 191.927 245.327 192.057 244.028 192.26C239.583 192.952 235.079 193.392 230.889 195.231C229.25 195.95 228.626 196.959 228.711 199.003C237.317 196.102 246.245 196.24 255.453 196.062C254.696 194.275 254.232 192.53 253.295 191.095C250.636 187.02 246.842 184.122 242.79 181.547C242.024 181.059 241.295 181.356 240.626 181.761ZM247.087 178.984C245.974 179.328 244.914 179.842 243.787 180.294C245.54 181.603 247.165 182.74 248.705 183.982C252.481 187.03 255.586 190.569 256.824 195.446C256.897 195.734 257.385 196.075 257.713 196.114C262.568 196.692 267.409 197.333 272.303 198.788C272.817 197.631 273.356 196.553 273.782 195.432C274.975 192.292 274.272 188.992 274.519 185.77C274.532 185.61 274.353 185.432 274.252 185.269C272.357 182.207 269.605 180.22 266.253 179.11C259.892 177.004 253.483 177.004 247.087 178.984ZM165.446 173.97C166.072 178.768 167.066 183.344 168.954 187.616C170.391 186.067 171.629 184.424 173.175 183.157C174.711 181.898 176.556 181.017 178.315 179.941C176.482 178.916 175.847 176.974 175.301 174.953C175.232 174.695 174.713 174.423 174.384 174.396C173.099 174.293 171.806 174.299 170.517 174.24C168.845 174.164 167.174 174.063 165.446 173.97ZM231.311 177.469C231.121 177.852 230.963 178.078 230.895 178.328C230.286 180.534 229.792 182.78 229.049 184.939C228.749 185.812 228.9 186.368 229.255 186.917C232.873 184.775 236.442 182.661 240.26 180.401C237.199 179.398 234.277 178.441 231.311 177.469ZM225.695 177.302C225.55 177.631 224.788 177.688 224.306 177.866C223.901 178.016 223.414 178.067 223.105 178.33C222.685 178.688 222.4 179.206 221.987 179.746C224.683 180.575 226.43 182.548 228.17 184.893C228.885 182.262 229.534 179.875 230.225 177.334C229.145 177.054 228.298 176.794 227.433 176.622C226.751 176.487 226.099 176.386 225.695 177.302ZM274.474 180.175C273.712 180.552 273.084 180.863 272.357 181.223C273.059 181.994 273.63 182.623 274.202 183.253C274.293 183.221 274.384 183.189 274.474 183.157V180.175ZM222.693 174.966C207.456 175.421 192.213 175.875 176.871 176.333C177.405 178.363 179.507 179.822 181.482 179.661C182.215 179.601 182.954 179.596 183.69 179.593C186.749 179.581 189.81 179.643 192.867 179.557C196.355 179.459 199.841 179.059 203.325 179.106C207.486 179.161 211.638 179.424 215.788 178.872C216.777 178.74 217.839 178.62 218.79 178.837C221.302 179.411 223.129 177.696 222.693 174.966ZM225.5 175.348H223.795V176.927H225.088C225.212 176.452 225.337 175.974 225.5 175.348ZM231.254 171.229C229.03 171.513 226.903 171.783 224.746 172.058C224.42 172.828 224.095 173.595 223.692 174.548C224.569 174.548 225.281 174.393 225.89 174.578C227.397 175.037 228.858 175.651 230.44 176.241C230.737 174.411 230.985 172.884 231.254 171.229ZM186.149 141.387C182.934 141.527 179.721 141.737 176.516 142.017C174.985 142.151 173.453 142.43 171.968 142.823C171.466 142.955 170.847 143.583 170.741 144.083C170.533 145.059 170.496 146.131 170.66 147.117C171.278 150.84 171.942 154.558 172.706 158.252C173.82 163.631 175.049 168.986 176.193 174.359C176.351 175.104 176.625 175.392 177.42 175.365C181.077 175.243 184.737 175.181 188.395 175.101C190.53 175.055 192.664 175.024 194.798 174.97L205.867 174.679C207.813 174.63 209.76 174.636 211.704 174.547C214.657 174.412 217.607 174.215 219.263 174.119C223.274 174.195 222.632 174.561 223.704 172.108C224.977 169.196 225.94 166.141 226.94 163.115C228.891 157.209 230.789 151.284 232.678 145.357C233.279 143.47 232.003 141.583 230.053 141.576C227.446 141.565 224.838 141.783 222.23 141.783C217.384 141.781 212.537 141.715 207.691 141.633C202.924 141.554 198.158 141.399 193.391 141.323C190.977 141.286 188.559 141.282 186.149 141.387ZM194.31 126.193C194.339 129.299 194.27 132.1 195.566 134.764C194.83 134.091 194.19 133.38 193.909 132.546C193.639 131.743 193.409 131.568 192.616 131.865C187.826 133.661 182.977 135.306 178.229 137.205C169.953 140.514 162.489 145.106 156.265 151.614C153.821 154.17 151.873 156.984 150.762 160.356C149.719 163.52 150.32 165.859 152.782 167.925C156.142 170.743 160.092 172.112 164.403 172.505C166.08 172.657 167.765 172.711 169.446 172.813C171.244 172.922 173.04 173.035 174.899 173.15C174.877 172.811 174.886 172.656 174.854 172.511C173.943 168.371 173.041 164.228 172.079 160.099C172.017 159.83 171.45 159.448 171.185 159.495C168.703 159.938 166.203 160.342 163.773 160.998C161.453 161.624 159.21 162.537 156.934 163.323C156.895 163.204 156.856 163.084 156.817 162.965C161.431 160.414 166.217 158.41 171.831 158.43C171.12 154.373 170.453 150.429 169.732 146.495C169.219 143.694 170.292 141.854 172.973 141.4C174.688 141.109 176.443 141.021 178.185 140.932C181.444 140.764 184.705 140.656 187.965 140.535C191.272 140.411 194.579 140.214 197.887 140.207C202.064 140.199 206.242 140.344 210.419 140.437C212.877 140.492 215.335 140.614 217.793 140.636C222.013 140.672 226.234 140.63 230.453 140.67C232.456 140.688 234.04 142.367 233.764 144.368C233.533 146.048 232.988 147.692 232.506 149.329C231.974 151.138 231.355 152.923 230.729 154.857L231.664 154.801C236.489 154.503 241.153 154.166 245.473 156.589C240.489 155.492 235.461 155.404 230.457 155.776C228.76 160.738 227.091 165.614 225.311 170.816C227.567 170.537 229.603 170.474 231.54 170.001C234.773 169.212 238.005 168.33 241.123 167.174C244.435 165.946 247.657 164.521 250.142 161.735C253.251 158.249 252.987 154.313 250.576 150.813C248.601 147.945 245.815 145.969 243.004 144.08C237.381 140.303 231.384 137.215 224.899 135.225C219.82 133.666 214.67 132.34 209.548 130.923C208.702 130.688 208.345 131.046 208.103 131.922C207.798 133.031 207.348 134.158 206.705 135.103C205.586 136.752 203.59 137.508 201.722 137.121C203.626 135.946 205.814 135.397 206.805 133.22C207.731 131.184 207.553 129.069 207.778 126.631C206.849 127.783 206.198 128.702 205.434 129.513C204.279 130.738 203.065 131.885 201.249 132.096C198.79 132.381 197.312 130.981 196.078 129.163C195.487 128.291 194.995 127.352 194.31 126.193ZM195.439 160.961C197.275 161.071 198.263 161.901 198.177 163.261C198.078 164.817 196.677 166.11 195.197 166.011C193.366 165.889 192.038 164.686 192.111 163.215C192.173 161.957 193.79 160.863 195.439 160.961ZM200.07 150.871C200.568 150.911 201.182 151.269 201.492 151.691C204.15 155.318 206.756 158.988 209.362 162.658C209.698 163.131 209.946 163.674 210.329 164.353C208.735 164.6 207.315 164.865 205.885 165.003C205.596 165.031 205.18 164.643 204.968 164.334C202.025 160.056 199.108 155.758 196.19 151.462C196.151 151.405 196.17 151.304 196.157 151.174C196.261 151.097 196.379 150.932 196.503 150.928C197.692 150.88 198.889 150.775 200.07 150.871ZM193.373 106.13C193.058 107.532 192.744 108.937 192.52 110.356C192.292 111.795 191.976 113.262 192.052 114.699C192.216 117.825 193.314 120.711 194.837 123.428C196.171 125.808 197.696 128.027 200.152 129.408C200.955 129.859 201.678 129.875 202.558 129.419C204.573 128.374 205.848 126.629 206.909 124.782C209.369 120.502 210.319 115.771 210.62 110.57C210.62 109.595 210.793 108.282 210.583 107.034C210.144 104.412 208.157 103.039 206.203 101.438C202.121 98.0948 194.539 100.936 193.373 106.13ZM199.512 0C199.653 0.444214 199.893 0.883289 199.917 1.3335C200.034 3.50445 200.067 5.67926 200.177 7.85065C200.398 12.2084 200.642 16.5644 200.891 20.9205C201.032 23.3853 201.225 25.8475 201.353 28.3128C201.533 31.7903 201.472 35.2973 201.946 38.7336C202.11 39.9253 202.474 41.222 202.81 42.4548C204.491 42.7641 203.806 44.1169 204.008 45.0794C204.022 45.1488 204.07 45.2465 204.126 45.267C205.904 45.9297 206.179 47.5871 206.306 49.0345C206.615 52.5437 208.961 54.8796 210.86 57.5003C212.829 60.2191 214.771 62.9581 216.731 65.6833C217.203 66.3387 217.718 66.9642 218.185 67.623C218.559 68.1516 218.532 68.5894 217.886 68.9569C215.934 70.0672 214.096 71.4273 212.04 72.2879C210.217 73.0512 208.185 73.4569 206.205 73.7049C200.58 74.4087 195.202 73.0834 189.92 71.3725C188.765 70.9981 187.709 70.257 186.687 69.5695C185.969 69.0867 185.799 68.4172 186.401 67.5973C189.783 62.9885 193.129 58.3536 196.484 53.7255C196.892 53.1627 197.282 52.5869 197.88 51.7332C197.547 49.9769 197.919 47.7764 199.324 45.7691C199.486 45.5373 199.711 45.2019 199.648 44.989C199.328 43.916 199.263 43.019 200.658 42.6827C200.773 42.6549 200.921 42.3756 200.899 42.2368C200.733 41.1753 200.721 40.1999 201.042 39.0909C201.367 37.9698 201 36.6479 200.905 35.4168C200.767 33.6502 200.553 31.8888 200.456 30.1205C200.263 26.643 200.118 23.163 199.972 19.6834C199.727 13.8422 199.497 7.99972 199.257 2.15853C199.229 1.46287 199.177 0.768058 199.137 0.0723935C199.262 0.0484051 199.388 0.0244168 199.512 0ZM197.392 54.4992C195.917 56.381 194.495 58.306 193.121 60.2611C191.237 62.9422 189.412 65.6632 187.386 68.6232C189.178 69.4598 190.759 70.2797 192.405 70.9415C193.813 71.5074 194.08 71.3069 194.703 69.919C195.722 67.6483 196.775 65.3916 197.796 63.1217C199.084 60.2594 200.353 57.3902 201.62 54.5463C200.616 54.3205 199.689 54.0207 198.742 53.9393C198.302 53.9012 197.659 54.159 197.392 54.4992ZM210.337 58.5948C210.283 58.6406 210.229 58.6864 210.175 58.7318C211.622 61.634 213.046 64.5482 214.526 67.4341C215.393 69.1257 215.433 69.1056 216.987 68.0265L210.337 58.5948ZM206.041 50.9193C203.799 51.881 201.493 52.2854 199.088 51.5537C198.962 52.0541 198.862 52.4512 198.761 52.8564C200.82 53.3901 202.797 53.3233 204.798 52.7681C205.82 52.4846 206.414 52.0926 206.041 50.9193ZM203.729 46.0861C202.655 46.0916 201.582 46.3504 200.141 46.5628C199.88 47.3014 199.512 48.4121 199.094 49.5044C198.762 50.3766 199.201 50.6692 199.967 50.8803C202.051 51.4543 203.945 50.8456 205.92 50.0737C205.558 48.9728 205.31 47.9572 204.878 47.0242C204.685 46.6087 204.122 46.0844 203.729 46.0861ZM202.976 44.1443H200.692C200.759 45.372 200.835 45.4054 203.072 45.1668C203.035 44.7684 203.004 44.4399 202.976 44.1443Z" fill="black"/>
</svg>
