<svg width="2555" height="2149" viewBox="0 0 2555 2149" fill="none" xmlns="http://www.w3.org/2000/svg">
<circle cx="1277.5" cy="826.5" r="826.5" fill="black" fill-opacity="0.04"/>
<path d="M1487.1 1095.39C1519.14 1101 1549.98 1106.2 1581.22 1111.41C1611.65 1116.62 1642.09 1121.02 1672.53 1125.83C1705.37 1131.03 1738.61 1136.24 1771.05 1142.25C1817.91 1151.06 1864.77 1160.27 1911.22 1169.48C1975.7 1181.9 2040.18 1193.51 2104.66 1206.33C2190.37 1223.55 2276.07 1240.77 2361.38 1259.19C2415.05 1270.81 2468.71 1284.82 2521.98 1298.84C2548.41 1305.65 2558.42 1324.87 2553.62 1352.91C2551.21 1366.93 2550.81 1381.34 2549.21 1395.76C2548.41 1406.57 2548.01 1417.39 2546.01 1428.2C2543.2 1445.82 2531.99 1459.04 2517.97 1469.05C2475.12 1499.49 2431.47 1529.53 2388.21 1559.56C2356.97 1581.19 2326.94 1604.42 2294.9 1624.84C2212 1677.31 2129.09 1729.37 2045.39 1779.84C1991.32 1812.28 1935.25 1841.11 1880.79 1872.35C1842.34 1894.38 1804.69 1918.01 1766.65 1940.03C1703.77 1976.48 1640.49 2012.52 1577.61 2048.97C1535.56 2073 1494.31 2099.43 1451.06 2121.06C1419.02 2137.48 1384.17 2151.09 1346.93 2148.69C1315.29 2146.69 1284.05 2140.28 1253.21 2130.67C1214.76 2118.65 1174.71 2111.04 1135.87 2099.83C1079.8 2083.41 1024.53 2064.59 968.459 2048.97C879.549 2024.14 790.239 2000.51 701.329 1976.88C646.06 1962.46 590.392 1949.25 534.723 1934.83C445.813 1912 357.303 1889.17 268.794 1864.74C228.344 1853.53 188.695 1839.51 149.447 1825.09C127.419 1817.08 108.196 1803.87 95.3798 1783.84C92.9768 1780.24 93.3773 1774.63 92.9768 1769.82C92.1758 1763.02 92.1758 1755.81 91.7753 1749C81.7629 1746.19 72.151 1744.59 62.9397 1740.99C34.5045 1729.37 24.4921 1704.54 22.4897 1677.31C20.4872 1641.67 20.8877 1604.82 20.0867 1567.97C18.8852 1506.3 16.8827 1444.22 15.6813 1382.54C14.0793 1299.64 12.8778 1216.74 11.2758 1133.84C10.4748 1098.59 10.0743 1063.35 9.27334 1028.11C8.07186 974.04 6.46988 919.973 4.8679 865.506C3.26592 799.825 1.66394 733.743 0.462452 668.062C0.0619568 643.632 -0.338538 618.801 0.462452 594.371C2.46493 551.918 15.2808 513.07 46.1189 482.232C63.3402 465.011 85.3674 456.601 107.795 448.991C284.413 390.519 460.631 331.646 636.849 272.773C794.644 219.908 952.839 167.443 1111.03 114.578C1182.72 90.5482 1254.01 65.7176 1326.1 42.4889C1348.53 35.28 1372.16 30.8745 1395.39 28.071C1409.8 26.0686 1425.02 26.0686 1438.64 35.28C1454.66 46.0933 1457.86 63.3146 1459.47 80.5359C1463.07 123.389 1465.87 166.242 1468.28 209.095C1469.48 230.321 1470.68 251.547 1471.48 273.975C1491.51 267.567 1512.73 262.761 1531.96 253.95C1554.78 243.537 1575.21 247.142 1596.43 257.154C1657.31 286.791 1718.59 315.626 1780.26 344.863C1811.5 359.681 1843.14 373.698 1874.38 388.116C1881.19 391.32 1887.59 395.725 1894.4 398.929C1902.41 402.934 1905.22 410.143 1904.82 417.352C1903.21 438.578 1901.21 459.805 1898.01 480.63C1894.4 506.662 1889.6 532.294 1885.59 558.326C1881.99 581.555 1877.98 605.184 1874.38 628.413C1869.57 658.851 1864.37 689.288 1859.56 719.726C1858.76 725.733 1858.36 731.741 1857.16 737.748C1855.56 746.559 1851.55 752.967 1842.34 756.972C1752.63 795.019 1662.92 833.466 1573.21 871.513C1545.57 883.528 1517.54 895.143 1489.9 907.157C1487.1 908.359 1483.9 911.963 1483.9 914.366C1483.5 928.384 1483.5 942.801 1483.5 958.02C1503.92 949.209 1523.54 940.799 1542.77 932.389C1640.09 891.138 1737.41 850.287 1834.33 808.636C1838.33 807.034 1839.54 798.223 1842.34 793.016C1844.34 789.412 1846.74 785.807 1849.15 782.203C1851.15 785.807 1855.15 789.812 1854.75 793.016C1852.35 812.641 1851.55 832.265 1840.34 850.688C1831.53 842.277 1833.13 832.665 1835.93 822.653C1799.49 838.673 1763.84 854.693 1727.8 869.911C1667.72 895.543 1607.65 920.774 1547.57 946.406C1527.95 954.816 1508.33 962.426 1489.1 971.237C1486.3 972.438 1483.9 977.645 1483.9 981.249C1484.7 1005.28 1486.3 1028.91 1487.1 1052.94C1487.5 1067.36 1487.1 1081.77 1487.1 1095.39ZM1340.92 2063.79C1355.74 2057.38 1368.95 2053.37 1380.57 2046.57C1445.85 2008.12 1510.73 1968.47 1576.01 1930.02C1650.5 1885.97 1725.39 1841.91 1799.89 1798.26C1851.15 1768.22 1902.81 1738.99 1954.48 1709.75C2009.35 1678.91 2065.41 1649.67 2119.08 1617.23C2209.19 1562.37 2298.1 1505.1 2387.81 1449.03C2436.27 1418.99 2484.73 1389.35 2528.79 1352.51C2538.4 1344.5 2542 1325.67 2525.98 1319.27C2521.18 1317.26 2516.77 1314.86 2511.97 1314.06C2463.51 1302.45 2414.65 1290.03 2365.79 1279.22C2319.73 1268.8 2273.27 1259.59 2227.21 1249.58C2163.94 1235.96 2100.66 1221.95 2036.98 1209.53C1967.29 1195.51 1897.61 1183.1 1827.92 1169.88C1790.27 1162.67 1752.63 1156.27 1714.58 1149.46C1674.53 1142.25 1634.08 1135.04 1593.63 1128.23C1559.19 1122.22 1525.15 1116.62 1490.7 1111.41C1477.49 1109.41 1465.07 1107.81 1451.46 1115.41C1419.02 1133.44 1385.37 1149.46 1351.73 1164.68C1288.05 1193.91 1223.97 1222.35 1159.9 1251.18C1109.43 1273.61 1058.97 1296.44 1007.71 1317.66C948.034 1342.5 887.559 1364.52 828.286 1390.15C753.793 1422.59 680.903 1458.24 606.812 1491.48C544.735 1519.51 482.258 1547.15 419.38 1573.58C330.07 1611.63 239.958 1649.27 150.248 1686.92C145.442 1688.92 141.837 1692.53 137.432 1695.33C141.036 1700.14 144.641 1704.94 148.245 1709.75C149.046 1710.95 150.648 1711.35 151.85 1711.75C176.28 1720.16 200.309 1729.37 225.14 1736.18C274.801 1750.2 324.863 1763.01 374.925 1776.23C403.761 1783.84 432.997 1789.45 461.432 1797.86C547.138 1823.09 632.043 1849.12 717.749 1874.75C809.462 1902.39 901.176 1929.62 992.889 1957.66C1082.2 1984.89 1171.11 2013.32 1260.02 2040.56C1287.65 2049.37 1314.89 2056.58 1340.92 2063.79ZM1415.81 937.996C1387.78 949.61 1360.54 961.224 1332.91 972.438C1255.21 1004.88 1177.52 1037.72 1099.82 1069.76C1033.34 1097.39 966.056 1123.83 899.974 1152.26C887.158 1157.87 877.146 1156.67 865.932 1150.66C851.114 1142.65 835.895 1135.44 821.077 1127.03C786.234 1107.4 751.791 1087.38 717.348 1067.76C701.329 1058.54 685.709 1049.73 670.891 1040.92C670.891 1051.74 672.092 1062.15 670.49 1071.76C669.69 1078.17 672.092 1086.18 661.68 1090.18C577.175 1122.62 493.472 1155.46 408.967 1188.3C337.279 1215.94 265.59 1243.57 194.302 1271.21C183.889 1275.21 179.083 1272.01 179.484 1261.6C181.086 1185.5 182.287 1109.41 183.889 1033.71C184.69 993.664 185.491 953.615 185.892 913.565C187.494 826.257 189.096 738.95 190.297 651.642C190.297 639.226 196.304 632.418 205.916 628.413C244.364 612.393 283.212 596.774 321.659 581.155C367.316 562.331 412.572 543.909 458.228 524.685C532.72 493.847 606.812 463.009 681.304 432.17C697.324 425.762 701.729 428.966 701.329 446.588C700.928 470.217 700.127 493.847 698.926 517.476C698.525 524.685 697.324 531.894 696.122 541.506C934.417 459.404 1170.31 377.703 1405 296.803C1405 290.395 1405 285.99 1405 281.985C1405 244.739 1405.4 207.893 1404.6 170.647C1404.2 157.03 1405.4 140.61 1388.98 134.603C1380.17 131.399 1368.95 131.399 1359.74 133.802C1342.52 138.608 1326.5 147.018 1309.68 153.025C1208.76 189.07 1107.83 224.714 1006.51 259.958C792.641 335.251 577.976 409.342 363.311 484.235C298.03 507.063 233.15 530.292 168.27 553.921C151.049 560.329 139.034 573.946 134.228 590.766C129.822 607.187 129.422 625.209 129.422 642.43C129.021 663.656 131.424 685.283 131.024 706.509C131.024 745.357 129.422 784.205 129.021 823.454C128.22 957.219 127.419 1091.39 126.618 1225.15C125.817 1342.9 125.417 1460.24 123.815 1577.99C123.414 1596.81 143.84 1604.42 155.854 1599.61C176.28 1591.6 196.304 1582.39 216.329 1573.58C294.426 1540.34 372.122 1506.7 450.218 1473.46C540.33 1435.01 630.842 1396.96 720.953 1358.52C803.855 1323.27 886.758 1288.03 969.66 1252.78C1051.36 1217.94 1133.06 1183.1 1214.76 1149.06C1272.43 1125.03 1330.51 1102.2 1387.78 1077.77C1410.2 1068.16 1424.62 1062.15 1422.22 1029.31C1421.82 1020.1 1422.22 1010.89 1422.22 999.672C1370.16 1022.1 1321.29 1042.93 1272.83 1063.75C1207.95 1091.79 1143.07 1119.42 1078.19 1147.05C1022.53 1170.68 966.857 1194.71 910.787 1217.94C900.375 1222.35 892.765 1227.15 891.163 1238.77C890.763 1241.17 888.76 1243.17 887.158 1245.18C886.357 1244.77 885.957 1244.77 885.156 1244.37C885.156 1224.75 885.156 1204.73 885.156 1185.1C891.964 1183.5 895.569 1184.7 895.969 1191.91C896.37 1197.52 897.571 1202.72 898.773 1209.13C965.255 1180.29 1030.13 1151.86 1095.02 1123.83C1153.89 1098.59 1212.36 1073.76 1271.23 1048.53C1318.09 1028.51 1364.95 1008.08 1411.81 988.057C1416.61 986.055 1419.02 984.052 1418.21 978.045C1417.01 965.63 1416.61 952.413 1415.81 937.996ZM583.583 597.975C585.586 599.577 586.387 600.779 587.588 601.58C630.441 624.007 673.694 646.435 716.547 669.263C776.221 701.703 835.895 734.544 895.569 767.385C901.176 770.589 905.581 770.989 911.188 768.586C937.621 757.773 964.454 747.36 991.287 737.348C1142.27 680.077 1292.86 622.806 1443.85 565.936C1563.99 520.68 1684.14 475.824 1804.69 430.969C1828.32 422.158 1851.95 413.347 1876.38 404.136C1873.58 402.534 1871.98 401.332 1869.97 400.531C1825.92 380.907 1781.86 362.484 1738.21 342.059C1681.74 315.626 1626.07 288.393 1570 261.56C1566 259.557 1559.99 259.557 1555.98 260.759C1465.47 291.997 1374.96 324.037 1284.05 355.676C1082.6 425.762 880.75 495.449 678.901 565.535C648.063 576.349 616.424 586.761 583.583 597.975ZM684.107 444.586C666.085 452.596 647.262 462.208 628.038 469.817C581.981 488.24 535.524 505.861 489.867 524.685C399.756 561.931 310.446 599.978 220.334 637.224C201.911 644.833 201.911 644.433 202.312 663.656C202.312 666.46 202.312 669.664 202.312 672.467C200.309 767.385 197.906 862.302 196.304 957.219C195.103 1024.5 194.703 1091.79 193.902 1159.07C193.902 1164.68 192.7 1169.88 192.7 1175.49C192.7 1202.32 192.7 1229.16 192.7 1256.79C195.904 1255.99 198.307 1255.19 201.11 1254.39C280.008 1223.95 359.306 1193.51 438.203 1162.67C501.482 1138.24 564.359 1113.41 627.638 1088.98C636.448 1085.78 648.463 1084.98 652.869 1078.97C657.675 1072.16 654.07 1060.15 655.672 1050.53C658.075 1036.52 651.667 1029.31 640.053 1022.9C612.819 1008.08 586.387 992.062 559.954 976.043C555.548 973.239 550.342 968.834 548.74 964.028C546.337 956.819 546.337 948.408 545.937 940.399C544.335 890.737 542.733 841.076 541.531 791.414C541.131 768.987 542.332 746.559 543.534 723.731C545.937 683.681 549.942 643.632 551.944 603.582C552.345 591.567 558.352 587.963 567.964 584.759C604.409 572.744 640.453 559.928 676.498 547.112C679.301 545.911 682.906 541.105 682.906 538.302C684.508 508.264 684.107 477.426 684.107 444.586ZM2538.4 1360.12C2532.79 1363.32 2527.99 1365.72 2523.98 1368.93C2498.75 1388.15 2475.12 1409.38 2448.69 1427C2365.79 1481.07 2282.48 1533.53 2198.78 1586.4C2185.16 1594.81 2173.55 1602.02 2172.75 1621.64C2171.95 1642.87 2154.72 1654.88 2137.5 1665.29C2081.43 1698.94 2025.36 1732.98 1968.9 1765.82C1930.85 1787.85 1892 1809.07 1853.15 1830.3C1847.14 1833.5 1840.74 1835.91 1834.33 1837.51C1825.92 1839.91 1819.11 1837.51 1817.51 1827.49C1816.31 1820.69 1816.31 1813.48 1815.51 1806.27C1813.5 1806.67 1811.9 1807.07 1811.1 1807.87C1718.99 1862.34 1627.27 1916.81 1535.16 1971.27C1482.69 2002.11 1430.63 2033.35 1377.76 2063.39C1352.13 2078.2 1324.5 2079.41 1295.66 2070.19C1153.89 2025.74 1011.71 1981.69 869.537 1938.03C774.219 1908.8 678.5 1881.16 582.782 1853.13C495.074 1827.49 407.365 1802.26 319.657 1777.43C280.809 1766.22 241.16 1757.41 202.712 1745.39C173.877 1736.58 141.837 1732.58 121.812 1704.54C103.39 1724.97 105.392 1750.2 103.79 1774.23C103.79 1775.83 105.392 1777.43 106.594 1778.63C116.606 1793.05 130.223 1803.87 145.842 1809.47C192.3 1826.29 238.757 1843.91 286.015 1857.13C369.318 1880.36 453.022 1901.19 537.126 1922.41C604.809 1939.23 672.493 1954.45 740.177 1971.67C815.069 1990.9 889.561 2011.32 963.653 2032.15C1029.33 2050.57 1094.21 2071.8 1159.9 2090.22C1213.56 2105.44 1267.63 2118.65 1321.7 2131.87C1335.71 2135.07 1350.53 2137.88 1364.55 2136.68C1401.79 2132.67 1435.84 2117.05 1467.88 2099.03C1515.94 2072.2 1562.39 2042.56 1610.05 2014.93C1694.96 1965.26 1780.26 1915.6 1865.57 1866.34C1904.42 1843.91 1944.46 1824.69 1982.51 1801.46C2086.24 1737.78 2189.57 1672.9 2292.5 1607.62C2342.56 1575.98 2390.62 1541.14 2440.28 1508.3C2468.71 1489.48 2498.75 1472.26 2522.38 1447.43C2527.99 1441.82 2531.99 1433.01 2533.19 1425C2535.19 1404.17 2536 1382.95 2538.4 1360.12ZM1842.34 740.552C1858.76 632.418 1875.18 523.483 1892 412.947C1881.19 417.352 1873.18 420.957 1864.77 424.16C1761.84 463.809 1658.91 503.459 1555.98 543.108C1449.05 584.358 1342.12 625.609 1235.19 666.46C1127.86 707.31 1020.52 746.959 913.19 787.009C907.183 789.011 905.181 792.616 904.78 799.024C902.778 833.066 899.974 866.707 898.372 900.749C896.37 944.804 895.168 989.259 893.967 1033.31C893.967 1036.52 893.967 1039.72 893.967 1043.33C893.967 1074.96 893.967 1106.2 893.967 1137.44C1208.36 1005.28 1524.75 873.115 1842.34 740.552ZM56.1313 1720.96C53.7283 1701.74 49.7233 1682.92 48.9223 1663.69C47.3204 1616.83 46.9199 1569.98 46.5194 1522.72C45.7184 1438.61 44.9174 1354.51 44.1164 1270.41C43.7159 1219.14 42.5144 1167.88 42.1139 1116.62C41.3129 1067.36 40.9124 1017.69 39.711 968.433C38.5095 921.575 36.9075 874.717 35.3055 827.859C34.104 795.82 31.7011 764.181 31.3006 732.542C30.4996 696.497 30.4996 660.052 31.3006 624.008C31.7011 603.983 34.104 583.958 37.7085 563.933C45.7184 520.68 70.9496 491.444 113.002 477.426C311.247 410.944 509.492 344.062 707.336 277.579C925.606 204.289 1143.88 130.598 1361.74 57.3072C1376.56 52.1007 1391.78 47.6953 1406.6 42.8894C1398.59 39.2849 1390.18 36.8819 1382.57 38.0834C1368.15 40.0859 1353.73 43.6903 1339.72 48.0958C1284.45 66.1181 1229.18 84.9413 1173.91 103.765C820.676 223.112 467.039 342.46 113.803 461.807C70.5491 476.625 35.3055 501.456 21.6887 547.513C14.8803 570.341 11.6763 594.771 11.6763 618.801C11.2758 666.059 14.0793 713.318 15.2808 760.576C16.8827 832.665 18.4847 904.754 19.6862 976.443C20.0867 1003.28 20.8877 1030.11 21.6887 1056.94C23.2907 1109.41 24.4921 1161.47 26.0941 1213.94C27.6961 1264 29.2981 1314.06 30.4996 1364.52C32.1016 1443.82 33.303 1523.12 34.905 1602.42C35.706 1629.65 36.9075 1656.88 39.711 1683.72C41.3129 1697.33 45.3179 1712.15 56.1313 1720.96ZM605.21 664.057C606.011 674.069 607.212 681.679 607.212 689.288C606.812 710.514 605.61 732.141 605.61 753.367C606.011 813.842 606.812 874.317 608.013 934.391C608.013 937.996 611.618 942.401 614.822 944.403C637.249 957.62 659.677 970.035 682.105 982.851C691.717 988.458 701.729 994.065 711.741 999.672C712.943 987.657 713.744 977.244 714.945 966.831C716.948 953.214 712.542 944.403 699.727 937.595C680.903 927.583 662.881 915.167 644.859 903.953C644.859 902.752 644.859 901.55 644.859 900.349C648.063 899.548 651.267 897.946 654.07 898.347C657.675 898.747 661.68 900.749 664.884 902.752C681.304 911.162 697.724 919.973 714.545 928.384C715.346 920.374 715.746 912.764 717.348 905.155C721.754 881.926 712.943 867.508 690.515 858.698C676.498 853.091 664.083 843.078 650.866 835.469C651.267 833.867 651.667 832.665 652.068 831.063C656.473 831.063 661.68 829.461 665.284 831.464C683.306 839.474 700.528 848.285 719.351 857.096C720.953 845.081 722.154 833.867 723.356 822.253C724.157 815.044 721.754 810.638 715.346 806.633C696.523 795.019 678.5 782.603 660.478 769.788C657.675 767.785 656.473 763.78 654.471 760.977C655.672 759.775 656.874 758.574 658.075 756.972C680.102 768.987 702.13 781.402 724.958 793.817C726.56 774.594 728.162 756.571 729.363 738.149C729.363 736.146 726.56 733.343 724.557 732.141C709.739 723.33 694.921 714.119 680.102 705.708C656.073 692.092 631.242 678.475 605.21 664.057ZM848.31 804.631C813.467 784.205 779.425 764.181 742.98 742.954C742.98 764.181 742.58 783.004 743.381 801.827C743.381 804.23 746.585 807.034 748.988 808.636C759 815.444 769.813 821.452 779.826 828.26C784.231 831.063 787.836 835.469 791.84 839.073C791.039 840.675 789.838 841.877 789.037 843.479C773.418 836.67 757.398 829.862 741.779 823.053C740.978 827.859 739.776 832.665 738.975 837.872C734.57 860.7 738.174 868.71 757.398 881.125C763.806 885.13 770.614 888.334 776.622 892.74C783.43 897.546 789.438 903.152 796.246 908.359C795.445 909.16 795.044 910.361 794.243 911.162C772.216 909.961 756.196 893.941 736.572 885.931C735.771 902.752 734.57 918.772 734.57 934.391C734.57 937.595 736.973 942.401 739.776 944.003C753.393 953.214 767.811 961.625 781.428 971.237C785.433 974.04 788.637 978.446 791.84 982.45C791.039 983.652 790.239 984.853 789.438 986.055C770.614 977.244 751.791 968.433 732.567 959.222C730.965 973.64 728.963 988.057 728.162 1002.07C728.162 1004.88 730.565 1009.68 732.968 1011.29C753.393 1023.7 774.219 1035.72 795.445 1047.73C809.062 1055.34 822.679 1062.95 836.295 1070.56C837.497 1070.16 838.698 1069.76 839.9 1068.96C839.9 1042.93 839.099 1016.89 840.3 990.861C842.303 946.406 845.907 901.951 848.31 857.496C848.711 839.874 848.31 821.852 848.31 804.631ZM712.542 1049.33C712.542 1038.92 713.343 1030.11 712.142 1021.7C711.742 1018.09 708.938 1013.29 705.734 1011.29C694.921 1004.48 683.306 998.47 671.692 992.463C647.662 979.247 623.232 966.03 599.202 952.413C595.998 950.411 593.195 946.005 592.394 942C590.792 935.593 589.991 928.384 589.991 921.575C589.19 882.327 587.188 843.078 587.989 803.83C588.79 756.571 591.994 709.713 593.996 662.856C594.396 649.239 595.998 647.236 608.013 653.244C632.043 665.258 656.073 677.674 679.702 690.49C696.122 699.301 711.742 708.912 728.162 718.124C735.771 702.104 732.968 693.694 718.95 686.885C713.744 684.482 708.538 682.079 703.331 679.276C662.481 657.649 622.031 636.022 581.18 614.796C576.374 612.393 571.168 609.99 565.16 607.187C565.16 613.995 565.16 618.801 565.16 623.607C564.359 647.637 563.558 671.266 562.757 695.296C561.556 718.124 559.153 740.952 559.153 763.78C559.553 796.22 562.357 829.061 562.757 861.501C563.558 891.939 563.158 922.777 562.757 953.214C562.757 961.625 565.961 966.03 572.77 969.635C597.6 983.652 622.431 998.07 647.262 1012.49C668.889 1024.1 690.115 1036.12 712.542 1049.33ZM875.944 1143.45C876.345 1138.64 876.745 1137.04 876.745 1135.44C877.546 1077.77 878.347 1020.1 879.148 962.025C879.148 959.622 879.148 956.819 879.549 954.416C882.352 924.379 885.156 894.342 887.959 864.304C889.962 843.078 891.564 821.852 894.367 801.026C896.37 785.006 894.768 781.803 880.75 774.193C853.116 759.375 825.883 744.156 798.248 729.338C781.027 719.726 763.806 710.114 745.784 699.701C745.784 708.512 745.383 715.32 746.184 722.129C746.585 724.932 748.587 728.937 750.99 730.539C784.632 751.365 818.273 771.79 852.315 792.215C858.723 796.22 861.527 800.626 861.527 807.835C861.527 816.245 861.527 824.655 861.927 833.066C862.328 853.892 864.33 875.118 863.129 895.944C861.527 929.986 857.522 963.627 855.119 997.669C853.116 1022.9 851.915 1048.13 849.912 1073.36C849.512 1078.57 847.509 1083.78 846.308 1089.78C805.858 1066.95 767.41 1045.33 727.761 1022.9C727.761 1035.32 727.761 1046.13 727.761 1059.35C775.02 1086.58 824.281 1114.21 875.944 1143.45ZM2161.53 1610.43C2159.13 1611.63 2157.13 1612.03 2155.53 1613.23C2089.04 1650.88 2022.96 1688.52 1956.48 1725.77C1916.43 1748.2 1875.98 1770.22 1835.53 1792.65C1828.72 1796.26 1823.52 1814.28 1827.92 1820.69C1829.12 1822.69 1833.93 1824.69 1836.33 1823.89C1842.74 1821.89 1849.15 1819.48 1855.15 1815.88C1883.59 1799.86 1912.43 1784.24 1940.46 1767.42C2002.14 1731.38 2063.81 1695.33 2125.09 1658.09C2143.11 1648.07 2161.93 1636.86 2161.53 1610.43Z" fill="black"/>
<path d="M1927.24 704.108C1931.65 702.506 1934.85 700.904 1938.06 700.904C1941.66 700.904 1944.87 702.906 1948.47 703.707C1946.47 706.511 1945.67 710.916 1942.86 712.118C1926.44 719.326 1909.22 726.135 1893.2 732.943C1886.79 726.936 1887.19 721.329 1893.6 719.727C1910.82 715.321 1912.03 701.304 1914.43 687.687C1922.84 635.222 1932.05 583.158 1940.46 530.693C1947.67 487.44 1954.08 444.587 1960.89 400.933C1952.07 400.532 1944.87 413.749 1934.05 405.739C1940.46 396.127 1982.11 376.503 1995.73 376.903C1998.53 384.112 1994.53 388.918 1988.52 389.719C1971.7 392.122 1972.1 404.537 1970.5 416.152C1965.69 448.992 1960.49 482.233 1955.68 515.074C1951.27 545.912 1946.87 576.75 1942.06 607.588C1937.26 640.028 1932.45 671.668 1927.24 704.108Z" fill="black"/>
<path d="M1933.25 375.301C1938.86 371.297 1944.46 367.292 1951.27 362.886C1944.46 359.682 1937.25 356.078 1930.05 352.473C1847.94 312.824 1765.44 273.175 1683.34 233.526C1676.13 229.922 1668.92 227.118 1661.71 223.514C1649.3 217.106 1637.28 210.298 1622.47 218.708C1619.66 220.31 1615.26 218.307 1610.45 218.307C1621.26 202.288 1654.51 188.671 1669.72 197.882C1664.92 201.487 1660.51 204.691 1655.31 208.696C1688.15 224.315 1722.19 240.735 1755.83 256.755C1824.72 289.596 1893.2 322.837 1962.49 355.277C1965.69 356.879 1970.9 355.277 1974.9 354.075C1982.91 351.672 1990.12 344.864 1998.93 351.672C1992.12 362.486 1948.47 380.508 1933.25 375.301Z" fill="black"/>
<path d="M825.08 1853.12C802.252 1847.12 779.423 1841.11 756.996 1834.7C665.282 1808.67 573.969 1782.64 482.256 1756.2C426.187 1740.18 370.118 1723.36 314.449 1706.54C310.043 1705.34 306.439 1701.34 302.033 1698.53C306.038 1694.53 309.643 1689.32 314.449 1686.92C372.12 1659.29 429.791 1631.65 487.062 1604.42C539.126 1579.59 591.191 1553.95 643.255 1529.52C724.155 1491.48 805.456 1453.43 886.756 1416.18C960.447 1382.14 1034.94 1349.3 1108.63 1315.26C1157.49 1292.83 1205.95 1268.4 1254.41 1245.17C1326.5 1210.33 1398.19 1175.49 1470.28 1141.04C1475.48 1138.64 1483.09 1138.64 1489.1 1139.84C1523.14 1147.05 1556.78 1155.06 1590.43 1162.27C1636.08 1171.88 1682.14 1180.29 1728.2 1189.5C1768.65 1197.51 1809.5 1205.92 1849.95 1214.34C1876.78 1219.94 1903.61 1226.35 1930.05 1233.16C1936.45 1234.76 1942.46 1239.17 1948.47 1242.37C1943.66 1246.37 1939.26 1251.18 1934.05 1253.98C1830.32 1310.85 1726.59 1367.32 1622.87 1423.39C1531.55 1473.05 1439.84 1522.72 1348.53 1572.38C1252.41 1624.44 1156.69 1676.11 1060.57 1727.77C991.285 1765.02 922.4 1801.86 853.114 1839.11C844.304 1843.91 837.896 1855.13 824.679 1849.12C825.08 1850.72 825.08 1851.92 825.08 1853.12Z" fill="black"/>
<path d="M1621.67 1818.68C1593.23 1812.28 1556.78 1804.67 1520.74 1795.06C1443.85 1775.03 1367.35 1753.4 1290.86 1732.98C1281.24 1730.58 1271.23 1729.37 1261.22 1728.17C1249.2 1726.57 1241.6 1718.96 1237.99 1708.15C1234.39 1698.14 1237.59 1688.12 1245.6 1681.72C1263.22 1667.7 1280.44 1652.48 1300.07 1641.67C1391.38 1590.8 1483.49 1540.74 1575.61 1491.08C1634.48 1459.44 1694.15 1429 1753.03 1396.56C1781.46 1380.94 1809.9 1380.94 1840.34 1389.75C1896 1406.18 1951.27 1423 2007.34 1436.61C2059.81 1449.43 2113.47 1457.44 2166.34 1468.65C2178.75 1471.06 2190.37 1477.46 2201.98 1482.67C2218.4 1489.88 2219.2 1507.9 2206.39 1521.92C2190.37 1539.54 2169.14 1549.15 2149.12 1559.97C2064.21 1604.42 1978.91 1648.07 1894 1692.53C1827.12 1727.77 1760.24 1763.42 1693.35 1799.06C1673.73 1809.47 1652.9 1817.48 1621.67 1818.68ZM2207.99 1503.9C2200.78 1498.69 2193.97 1491.48 2185.56 1489.08C2158.73 1481.47 2131.5 1474.66 2104.26 1469.05C2066.61 1461.04 2028.57 1456.24 1991.32 1447.43C1939.66 1434.61 1888.8 1420.59 1837.93 1404.97C1807.9 1395.76 1780.66 1395.76 1753.03 1412.18C1731.4 1425 1708.57 1435.81 1686.14 1447.43C1635.68 1473.86 1585.22 1499.49 1535.16 1526.72C1462.67 1565.97 1390.58 1606.02 1318.89 1646.87C1296.06 1659.69 1275.24 1676.11 1254.41 1691.73C1251.21 1694.13 1248 1701.74 1249.2 1704.14C1252.41 1709.35 1258.02 1713.76 1264.02 1716.16C1268.03 1718.16 1273.63 1715.76 1278.04 1716.96C1312.48 1724.97 1346.93 1732.58 1380.97 1741.79C1449.45 1760.21 1517.14 1780.24 1585.62 1799.06C1622.07 1809.07 1657.31 1807.07 1691.75 1787.85C1736.61 1762.62 1781.86 1738.59 1827.52 1714.56C1938.46 1656.08 2049.79 1598.41 2160.33 1539.94C2176.75 1529.93 2195.97 1524.32 2207.99 1503.9Z" fill="black"/>
<path d="M441.408 1276.41C441.408 1289.23 442.209 1302.04 441.008 1314.46C440.608 1319.27 436.202 1326.47 431.797 1328.08C360.509 1359.31 288.82 1389.75 217.131 1420.19C210.323 1422.99 203.515 1426.2 196.306 1428.6C186.293 1432.2 179.885 1428.6 179.485 1418.19C178.283 1389.75 177.883 1360.92 177.082 1332.48C176.681 1324.47 181.487 1320.47 188.696 1317.66C241.161 1296.84 293.626 1275.61 346.491 1254.38C372.523 1243.97 398.556 1234.36 424.588 1224.35C437.003 1219.54 441.008 1222.35 441.008 1235.56C441.408 1249.58 441.408 1263.2 441.408 1276.41ZM185.893 1420.59C208.721 1411.38 229.947 1402.97 250.773 1394.16C302.837 1372.13 354.902 1350.1 407.366 1327.68C415.777 1324.07 427.391 1322.87 431.396 1316.86C435.802 1310.05 432.998 1298.84 432.998 1289.23C432.998 1270 432.998 1251.18 432.998 1231.96C430.595 1232.36 430.195 1232.36 429.394 1232.36C350.096 1262.8 270.397 1293.63 191.099 1324.47C188.696 1325.27 186.293 1328.88 186.293 1331.28C185.893 1360.92 185.893 1390.55 185.893 1420.59Z" fill="black"/>
<path d="M507.889 605.985C503.083 633.219 498.677 658.85 493.07 684.082C492.269 688.087 486.662 692.892 482.657 694.494C404.961 722.129 327.265 749.362 249.569 776.996C240.358 780.2 235.152 777.397 234.751 767.785C233.55 748.962 232.749 730.138 232.749 711.315C232.749 708.512 236.353 704.106 239.156 702.905C312.047 674.069 385.337 645.634 458.227 617.599C469.842 613.194 482.257 610.39 494.272 607.186C497.876 606.385 501.881 606.386 507.889 605.985ZM496.675 616.798C489.866 619.201 484.259 621.604 478.652 623.206C408.165 644.833 340.081 672.067 271.997 699.3C248.368 708.912 238.355 720.927 242.761 745.758C243.962 752.566 242.761 759.375 242.761 766.984C323.661 738.148 402.158 710.514 480.655 682.079C482.657 681.278 485.06 678.475 485.461 676.072C489.065 656.848 492.67 637.624 496.675 616.798Z" fill="black"/>
<path d="M259.583 1016.09C274.801 998.071 295.227 993.265 315.251 987.658C372.122 970.837 429.392 954.417 486.663 937.996C489.467 937.196 493.071 938.397 496.275 938.797C493.872 941.2 492.27 945.205 489.066 946.407C439.805 962.827 390.544 978.847 341.283 994.466C322.06 1000.87 302.435 1006.48 282.811 1012.09C274.801 1014.09 267.192 1014.89 259.583 1016.09Z" fill="black"/>
<path d="M250.771 849.488C255.577 845.483 259.582 839.876 264.788 837.873C330.069 813.844 395.35 789.814 461.031 766.185C465.436 764.583 470.643 766.185 475.849 766.585C472.245 769.789 469.041 773.794 464.635 775.396C424.185 791.015 383.735 806.234 343.285 821.854C320.457 830.664 298.029 839.475 275.201 848.286C268.393 850.689 260.783 851.891 253.975 853.893C252.373 852.291 251.572 851.09 250.771 849.488Z" fill="black"/>
<path d="M292.823 1070.56C308.042 1076.57 301.634 1101.8 323.26 1098.6C324.462 1091.79 325.663 1084.58 316.452 1079.77C313.248 1078.17 311.246 1073.36 308.843 1069.76C309.644 1068.96 310.845 1068.16 311.646 1067.36C315.251 1070.56 318.855 1074.17 323.661 1078.57C324.061 1072.96 324.462 1069.36 324.862 1062.55C328.066 1066.16 330.069 1067.76 332.071 1070.16C334.074 1068.16 337.278 1065.75 341.683 1062.15C339.681 1076.17 323.26 1084.58 332.071 1099C347.691 1097.39 341.283 1078.97 352.497 1071.36C351.696 1076.57 351.295 1080.17 350.494 1084.58C353.698 1083.38 356.101 1082.18 361.708 1080.17C358.504 1084.98 356.902 1087.38 354.899 1090.59C358.904 1091.39 362.909 1091.79 368.516 1092.59C356.501 1096.19 345.688 1099.4 334.074 1103C344.887 1120.22 358.103 1105.4 371.32 1111.01C364.511 1113.01 360.106 1114.62 355.701 1116.22C358.904 1119.02 361.708 1121.82 364.912 1124.63C364.511 1125.43 364.111 1125.83 363.71 1126.63C360.106 1126.23 356.501 1125.43 353.298 1125.03C354.098 1128.63 354.9 1132.24 355.701 1135.84C354.9 1136.24 353.698 1136.64 352.897 1137.04C347.29 1127.83 345.688 1114.62 331.27 1113.81C329.268 1122.62 329.668 1129.83 338.88 1135.04C341.683 1136.64 343.285 1140.25 345.688 1143.05C344.887 1143.85 344.086 1144.65 343.285 1145.45C339.681 1142.25 336.076 1139.05 331.671 1135.44C330.87 1140.25 330.069 1145.05 329.668 1149.46C329.268 1149.46 328.467 1149.46 328.066 1149.46C326.865 1145.85 325.263 1142.25 323.661 1138.24C320.857 1142.25 318.054 1146.25 315.25 1149.86C314.449 1149.46 313.649 1149.06 313.248 1148.66C317.653 1138.24 322.059 1128.23 326.464 1117.82C313.248 1121.42 304.037 1127.03 306.44 1141.45C306.84 1144.25 304.437 1147.86 303.236 1151.06C302.435 1151.06 301.233 1150.66 300.432 1150.66C300.833 1144.25 301.634 1138.24 302.435 1131.44C298.029 1134.64 294.024 1137.44 289.619 1140.65C289.218 1140.25 288.417 1139.45 288.017 1139.05C290.42 1135.84 292.823 1133.04 295.626 1128.63C288.818 1128.63 283.211 1128.63 277.203 1128.63C277.203 1127.83 276.803 1126.63 276.803 1125.83C282.009 1124.63 287.216 1122.22 292.022 1122.63C305.238 1124.23 313.649 1117.02 321.658 1109.01C308.442 1093.39 296.427 1106.2 284.012 1110.61C283.611 1109.41 282.81 1108.61 282.41 1107.41C287.616 1103.8 292.422 1100.6 297.629 1096.99C293.223 1094.59 288.417 1091.79 284.012 1088.98C284.412 1088.18 284.813 1086.98 284.813 1086.18C289.619 1087.38 294.425 1088.58 300.432 1089.78C297.228 1082.98 295.226 1077.37 292.823 1070.56Z" fill="black"/>
<path d="M451.018 833.467C388.541 859.099 324.061 879.924 259.181 898.347C258.38 896.745 257.579 895.143 256.778 893.541C262.385 889.937 267.992 884.73 274 882.327C326.064 864.305 378.529 847.084 430.994 829.862C437.001 827.86 443.409 827.86 449.416 827.059C449.817 829.061 450.217 831.464 451.018 833.467Z" fill="black"/>
<path d="M437.403 1085.78C430.995 1088.18 426.189 1089.78 421.384 1091.79C422.185 1094.99 422.986 1096.99 423.787 1098.99C426.99 1113.41 415.777 1127.83 400.958 1127.43C398.555 1127.43 394.951 1123.02 394.55 1120.22C392.147 1110.61 389.344 1100.6 390.145 1090.98C390.946 1082.57 396.152 1074.56 400.558 1066.95C405.364 1058.54 410.57 1050.53 416.177 1042.52C418.18 1039.72 422.585 1036.92 425.388 1037.32C435.401 1038.52 445.814 1040.52 455.426 1043.73C459.03 1044.93 463.035 1050.53 463.435 1054.14C464.236 1068.56 463.836 1082.97 463.836 1097.79C463.836 1105 455.426 1110.61 445.013 1110.61C436.202 1110.61 438.204 1104.2 438.204 1098.99C437.403 1094.59 437.403 1090.98 437.403 1085.78ZM441.408 1078.17C442.209 1082.17 443.411 1085.78 443.811 1089.38C444.212 1092.99 443.811 1096.99 443.811 1099.8C457.028 1101.8 457.829 1094.59 457.428 1085.38C457.028 1076.57 457.428 1068.16 457.428 1059.35C457.428 1046.13 445.413 1048.93 439.005 1048.13C432.197 1047.33 423.787 1038.52 417.379 1049.73C412.573 1058.54 406.165 1066.55 401.759 1075.37C398.555 1081.77 396.553 1088.98 396.553 1095.79C396.553 1103 399.757 1110.61 401.359 1117.82C420.182 1110.21 420.983 1108.21 416.578 1085.38C424.187 1083.37 432.197 1080.97 441.408 1078.17Z" fill="black"/>
<path d="M404.563 904.754C391.747 917.97 271.999 957.619 261.186 952.813C278.007 934.791 390.946 896.343 404.563 904.754Z" fill="black"/>
<path d="M537.528 1032.91C547.139 1034.51 552.746 1045.33 550.343 1058.14C547.139 1074.96 534.724 1082.57 516.301 1078.17C516.301 1082.57 516.301 1086.98 516.301 1090.98C515.1 1091.38 513.898 1091.78 512.697 1092.18C510.694 1086.58 507.49 1080.97 507.49 1075.76C507.891 1066.55 513.498 1060.55 525.513 1056.94C522.709 1062.55 521.107 1066.15 519.105 1069.76C532.722 1072.56 541.933 1069.36 543.135 1059.74C543.936 1051.33 539.53 1042.12 537.528 1032.91Z" fill="black"/>
<path d="M510.291 1043.32C514.296 1037.72 517.1 1034.11 520.704 1028.91C509.09 1031.31 499.478 1032.11 493.47 1042.92C487.463 1052.94 491.067 1062.15 496.674 1073.36C481.456 1069.36 481.456 1058.94 483.458 1050.53C487.463 1033.31 490.667 1024.5 519.903 1023.3C521.105 1020.5 522.306 1017.69 523.507 1014.89C525.109 1016.89 526.711 1018.89 527.913 1021.3C531.918 1032.11 526.311 1040.92 510.291 1043.32Z" fill="black"/>
<path d="M1856.36 457.403C1865.57 469.818 1859.16 483.035 1857.96 495.049C1855.15 523.084 1850.35 551.119 1845.94 579.153C1842.74 598.377 1838.73 617.2 1835.13 636.024C1830.72 658.451 1826.32 680.879 1822.31 703.707C1820.71 712.518 1815.91 717.725 1807.9 720.929C1753.83 743.757 1700.16 766.585 1646.1 789.013C1571.2 820.251 1496.31 851.089 1421.42 882.328C1340.92 915.569 1260.42 948.41 1179.92 981.651C1107.43 1011.69 1034.94 1042.13 962.451 1072.56C952.438 1076.97 942.426 1081.77 931.613 1086.58C924.804 1063.35 925.605 1040.12 927.207 1016.49C927.207 1014.09 928.409 1011.69 928.409 1008.88C929.21 976.845 930.011 945.206 930.812 913.166C931.613 883.53 932.414 853.492 932.814 823.856C932.814 815.045 938.822 813.443 944.829 811.04C976.068 798.625 1007.71 786.61 1038.95 774.194C1141.87 734.145 1244.8 693.695 1348.13 653.645C1510.33 590.768 1672.53 527.89 1834.73 465.012C1842.34 462.609 1849.15 460.206 1856.36 457.403ZM1668.12 545.111C1673.33 579.554 1654.11 727.337 1641.69 741.754C1639.29 676.474 1654.91 612.795 1660.91 547.915C1662.12 548.315 1661.71 547.915 1661.31 548.315C1646.1 554.323 1630.48 560.33 1615.26 566.338C1610.05 568.34 1602.44 568.741 1599.64 572.746C1596.83 576.75 1598.84 583.959 1598.84 589.566C1597.24 620.404 1596.43 651.243 1594.43 682.081C1594.03 690.892 1590.83 699.302 1588.82 707.712C1580.81 663.658 1587.62 620.004 1590.43 575.949C1566 585.161 1542.37 594.773 1518.74 603.584C1439.84 634.021 1360.54 664.859 1281.65 695.297C1195.94 728.538 1110.63 761.779 1024.93 794.62C1018.52 797.023 1015.72 800.227 1015.72 807.836C1015.72 833.067 1014.92 858.699 1013.71 883.93C1011.71 921.176 1009.31 958.422 1007.31 995.668C1006.91 1000.87 1006.1 1005.68 1006.1 1010.89C1005.7 1021.3 1006.1 1031.71 1006.1 1043.73C1024.93 1036.12 1042.55 1028.91 1060.17 1020.9C1062.57 1019.7 1063.78 1014.49 1064.18 1011.29C1064.58 1008.48 1062.57 1005.68 1062.57 1002.88C1063.38 948.009 1063.78 893.141 1064.98 838.274C1064.98 830.664 1068.18 823.455 1069.78 816.246C1074.19 823.856 1076.99 831.065 1076.99 838.674C1077.39 888.335 1076.99 937.596 1076.99 987.258C1076.99 996.069 1075.79 1004.88 1074.99 1015.29C1091.41 1008.48 1105.83 1002.48 1120.65 996.87C1127.86 994.066 1131.06 990.061 1130.66 981.651C1129.06 944.004 1127.45 906.358 1127.05 868.711C1127.05 860.301 1130.26 851.89 1132.26 843.48C1133.46 843.48 1134.26 843.881 1135.46 843.881C1143.07 866.709 1141.07 890.738 1141.47 914.768C1141.87 938.397 1141.47 962.427 1141.47 988.059C1326.1 910.363 1509.93 833.067 1691.35 756.573C1695.36 678.476 1711.78 603.183 1719.39 525.888C1702.16 531.895 1685.34 538.303 1668.12 545.111ZM988.082 1051.34C992.488 967.633 996.893 886.333 1001.7 804.232C983.677 811.44 966.055 818.249 948.834 825.057C945.63 906.758 942.426 988.059 939.222 1070.96C957.645 1063.35 974.065 1056.94 988.082 1051.34ZM1787.47 497.853C1766.64 506.263 1747.82 513.873 1731.8 519.88C1722.59 597.977 1713.78 673.67 1704.97 750.565C1719.39 744.558 1732.6 739.351 1745.82 733.744C1748.62 732.543 1751.83 729.339 1752.23 726.536C1753.83 716.924 1753.83 706.911 1754.63 697.299C1757.03 677.675 1759.04 658.051 1762.24 638.427C1770.25 592.37 1778.66 545.912 1787.47 497.853ZM1844.74 474.624C1829.52 481.032 1815.5 486.239 1801.49 492.246C1799.49 493.047 1797.08 496.251 1796.68 498.654C1793.08 523.485 1790.67 548.716 1787.07 573.546C1782.26 606.387 1775.86 639.228 1770.65 672.068C1767.85 689.29 1766.64 706.911 1764.24 725.735C1781.06 719.327 1795.88 713.319 1809.5 707.712C1821.51 630.016 1833.13 552.721 1844.74 474.624Z" fill="black"/>
<path d="M332.874 1282.82C333.675 1286.83 334.476 1288.43 334.076 1288.83C322.461 1304.85 330.471 1322.07 331.272 1338.49C331.673 1344.5 328.068 1350.51 325.265 1354.51C319.257 1357.31 313.65 1360.52 307.242 1362.12C302.036 1363.32 296.429 1362.52 290.822 1362.52C290.822 1361.32 290.422 1359.72 290.422 1358.51C302.437 1353.31 314.051 1348.1 326.066 1342.9C325.665 1341.69 325.265 1340.89 324.464 1339.69C318.456 1342.09 312.048 1344.9 306.041 1347.3C303.638 1348.1 300.434 1350.91 299.633 1350.1C288.019 1341.69 276.805 1333.28 265.591 1324.07C265.191 1324.07 267.594 1318.87 269.596 1318.47C284.014 1313.26 298.432 1308.85 312.849 1303.65C316.053 1302.45 318.857 1299.24 321.26 1296.84C325.265 1292.83 328.068 1288.43 332.874 1282.82ZM320.058 1311.66C306.842 1315.66 293.626 1320.07 280.009 1324.07C280.009 1324.87 280.009 1325.67 279.608 1326.88C289.621 1328.48 292.825 1344.1 308.043 1336.89C319.257 1332.08 324.864 1325.67 320.058 1311.66Z" fill="black"/>
</svg>
