<svg xmlns="http://www.w3.org/2000/svg" width="496" height="33" viewBox="0 0 496 33"><g transform="translate(-1185 -2284)"><line x2="444" transform="translate(1212.5 2300.5)" fill="none" stroke="#f0eeed" stroke-linecap="square" stroke-width="4"/><circle cx="16.5" cy="16.5" r="16.5" transform="translate(1185 2284)"/><circle cx="16.5" cy="16.5" r="16.5" transform="translate(1648 2284)"/><path d="M2.053,20.3.8,18.747a1.969,1.969,0,0,1,0-2.377l11-13.63a1.178,1.178,0,0,1,1.918,0l11,13.622a1.969,1.969,0,0,1,0,2.377L23.449,20.3a1.186,1.186,0,0,1-1.941-.028l-6.491-8.441s-1.207-1.662-2.339-1.662-2.189,1.662-2.189,1.662l-6.5,8.448a1.179,1.179,0,0,1-1.941.028Z" transform="translate(1443.746 2287.749) rotate(90)"/></g></svg>