<svg width="260" height="260" viewBox="0 0 260 260" fill="none" xmlns="http://www.w3.org/2000/svg">
<path fill-rule="evenodd" clip-rule="evenodd" d="M120.488 39.4973L239.959 209.943L39.0654 231.058L120.488 39.4973Z" fill="#7DF283"/>
<path fill-rule="evenodd" clip-rule="evenodd" d="M132.749 26.0039C142.144 26.081 151.367 27.5202 160.422 30.0312C167.508 31.9959 174.356 34.614 180.714 38.2812C184.987 40.7456 189.081 43.5784 193.002 46.5783C200.466 52.2909 206.192 59.4768 210.026 68.0941C211.803 72.0882 212.973 76.2582 213.527 80.616C214.749 90.2048 212.964 99.2452 208.288 107.617C206.202 111.352 203.558 114.813 200.886 118.175C198.799 120.801 196.279 123.083 193.905 125.567C196.358 127.676 197.895 130.574 198.703 133.828C199.192 135.797 199.323 137.852 199.705 139.851C199.774 140.214 200.229 140.679 200.594 140.782C203.935 141.721 204.767 143.115 203.997 146.533C203.551 148.516 203.438 150.622 202.681 152.47C202.017 154.092 200.805 155.569 199.561 156.843C198.817 157.606 198.23 158.301 197.993 159.322C196.754 164.655 195.153 169.862 192.611 174.744C192.409 175.133 192.349 175.634 192.346 176.083C192.326 179.939 192.308 183.795 192.368 187.65C192.376 188.136 192.719 188.78 193.113 189.071C200.241 194.353 207.431 199.551 214.544 204.852C219.388 208.462 224.158 212.172 228.917 215.893C232.33 218.562 235.67 221.324 239.041 224.047C239.369 224.311 239.681 224.596 240 224.872C239.925 224.98 239.851 225.088 239.777 225.196C238.051 224.15 236.243 223.217 234.613 222.038C227.189 216.668 219.812 211.234 212.425 205.813C207.626 202.29 202.828 198.764 198.052 195.21C196.194 193.827 194.397 192.363 192.373 190.779C192.15 194.057 191.94 197.148 191.73 200.238L191.297 200.226C191.041 193.577 190.784 186.928 190.522 180.155C189.704 181.342 188.912 182.518 188.095 183.675C185.98 186.672 183.139 188.744 179.666 189.815C176.217 190.878 173.085 189.68 170.354 187.675C168.216 186.105 166.332 184.176 164.404 182.336C163.684 181.648 163.156 180.758 162.521 179.935C162.712 188.173 162.904 196.415 163.096 204.655C162.984 204.675 162.872 204.696 162.76 204.716C162.299 201.211 161.838 197.705 161.373 194.172C145.381 206.353 131.303 220.725 116.239 234C119.386 229.368 123.531 225.622 127.354 221.721C114.834 212.953 100.72 206.852 88.3106 197.696C88.0974 199.885 87.8873 202.048 87.6399 204.584V185.036C86.5417 186.617 85.268 188.574 83.8701 190.438C79.425 196.367 72.1261 197.052 66.6014 191.793C64.5162 189.809 62.6567 187.587 60.5912 185.363C61.7758 192.569 62.9377 199.637 64.0996 206.705L63.6074 206.812C62.8062 203.659 62.0046 200.505 61.2086 197.375C58.2172 200.12 55.3392 202.882 52.3266 205.491C48.9051 208.452 45.3413 211.25 41.8806 214.168C39.2344 216.399 36.6374 218.689 34.045 220.983C29.6987 224.829 25.3747 228.701 21.032 232.552C20.8415 232.72 20.5641 232.792 20 233.069C23.9613 227.633 28.4851 223.26 33.3256 219.182C37.3624 215.781 41.3242 212.293 45.362 208.893C49.0035 205.827 52.7054 202.832 56.3732 199.798C57.2023 199.112 57.9212 198.255 58.831 197.712C61.7313 195.98 60.2527 193.587 59.923 191.35C59.4645 188.234 59.1338 185.095 58.5215 182.011C58.212 180.453 57.5035 178.946 56.8028 177.499C54.6938 173.146 53.2804 168.563 52.0409 163.908C51.8623 163.237 51.3795 162.48 50.8112 162.107C47.6765 160.047 45.8496 157.35 46.1456 153.465C46.2626 151.932 46.1974 150.37 46.4716 148.868C46.7982 147.077 47.5823 146.591 49.3388 146.438C51.1973 146.276 52.547 145.699 53.2721 143.574C55.0814 138.272 57.9574 133.548 62.164 129.745C63.2322 128.779 64.4246 127.95 65.7433 126.914C65.1569 126.426 64.5498 125.965 63.9924 125.45C58.0174 119.931 52.9512 113.722 49.6209 106.236C47.693 101.902 46.2284 97.4088 45.8858 92.6444C45.6746 89.7046 45.4402 86.7337 45.6369 83.8047C45.9997 78.4164 47.308 73.2082 49.5438 68.2648C52.5683 61.5771 56.7769 55.6911 62.0336 50.6086C68.6224 44.238 76.2059 39.3003 84.5486 35.4857C92.0555 32.0533 99.8725 29.6153 107.946 28.0266C111.54 27.3195 115.2 26.8503 118.853 26.5673C123.473 26.2098 128.118 25.9657 132.749 26.0039ZM96.5985 143.157C96.8407 145.021 97.0839 146.892 97.3489 148.933C97.9627 149.06 98.6661 149.066 99.2136 149.36C99.7529 149.65 100.48 150.196 100.532 150.691C100.949 154.689 99.9315 158.249 97.0156 161.166C96.6083 161.573 96.2823 162.144 96.1192 162.698C95.6912 164.153 95.5318 165.703 94.9827 167.104C93.3985 171.147 91.6736 175.134 90.0081 179.145C89.8503 179.526 89.6257 179.912 89.5983 180.308C89.4668 182.219 89.4414 184.138 89.2851 186.047C89.0621 188.779 88.6905 191.501 88.5264 194.236C88.4721 195.133 87.9007 196.208 89.1868 196.951C98.5998 202.377 107.99 207.843 117.37 213.326C120.976 215.433 124.525 217.638 128.142 219.726C128.524 219.948 129.379 219.901 129.69 219.62C135.53 214.334 141.276 208.943 147.14 203.684C150.232 200.912 153.579 198.422 156.685 195.665C158.828 193.762 162.042 192.784 161.181 188.503C160.353 184.383 160.695 180.032 160.449 175.786C160.4 174.93 160.127 174.047 159.778 173.256C157.515 168.126 156.651 162.649 155.651 157.199C155.459 156.153 155.086 155.055 154.495 154.186C153.308 152.445 152.408 150.687 152.56 148.503C152.64 147.355 152.574 146.197 152.574 145.053C148.642 145.537 144.923 146.119 141.182 146.426C136.523 146.808 131.848 147.051 127.175 147.187C124.212 147.273 121.23 147.181 118.276 146.938C114.856 146.656 111.432 146.258 108.054 145.657C104.258 144.982 100.511 144.024 96.5985 143.157ZM73.806 149.262C73.4422 150.926 73.1679 152.613 72.935 154.302C72.5163 157.336 71.2406 159.761 68.2896 161.013C64.1648 162.763 59.8759 163.542 55.3899 163.1C54.8853 163.05 54.3709 163.093 53.7477 163.093C53.8626 163.585 53.9542 163.893 54.006 164.208C54.8273 169.209 56.9529 173.754 59.2202 178.192C61.103 181.878 64.3418 184.442 67.6991 186.771C69.9002 188.298 72.2508 189.687 75.0471 189.286C80.0357 188.57 83.7066 185.573 86.3678 181.568C88.5601 178.268 90.3093 174.637 91.9324 171.009C93.0264 168.562 93.559 165.863 94.3058 163.402C92.437 163.687 90.8119 164.072 89.1718 164.154C86.1866 164.302 83.4623 163.134 80.6743 162.258C78.5669 161.596 77.2451 160.192 76.9977 158.173C76.7001 155.745 76.9397 153.257 76.8543 150.798C76.8233 149.904 76.7643 148.855 76.2913 148.172C75.6423 147.234 74.1016 147.908 73.806 149.262ZM178.505 143.067C177.989 145.547 177.379 148.028 177.143 150.541C176.918 152.926 175.767 154.762 174.123 156.189C170.767 159.104 166.7 159.72 162.453 158.859C160.718 158.507 159.082 157.672 157.338 157.034C157.428 157.556 157.492 158.101 157.619 158.631C158.861 163.84 159.632 169.192 162.172 174.015C164.028 177.539 165.899 181.142 169.863 182.703C171.773 183.456 173.898 183.711 175.949 184.043C180.719 184.816 184.861 183.248 187.788 179.606C192.695 173.504 195.065 166.188 196.811 158.507C195.783 158.775 194.913 159.07 194.018 159.224C188.416 160.194 184.966 158.203 182.173 153.865C181.929 153.485 181.722 153.024 181.676 152.583C181.354 149.465 181.122 146.338 180.747 143.227C180.684 142.711 180.154 142.001 179.681 141.837C178.744 141.511 178.626 142.482 178.505 143.067ZM88.66 150.365C88.4364 150.993 87.8909 151.512 87.465 152.06C85.3725 154.754 83.2718 157.441 81.1846 160.116C81.5205 160.369 81.7529 160.638 82.0453 160.748C83.4193 161.267 84.7862 161.943 86.2094 162.11C86.6384 162.161 87.2383 160.754 87.761 160.016C87.7874 159.978 87.8283 159.95 87.8557 159.912C90.1929 156.698 92.5301 153.484 94.9848 150.107C93.6521 149.81 92.4271 149.515 91.1923 149.267C90.1153 149.052 89.1418 149.011 88.66 150.365ZM61.0782 146.437C60.7195 146.445 60.2341 146.76 60.039 147.076C58.7549 149.154 57.5097 151.257 56.2992 153.378C54.89 155.847 53.5293 158.342 51.8856 161.297C54.4433 161.495 56.545 161.658 58.4211 161.803C61.9678 156.587 65.3531 151.609 68.8894 146.408C66.0414 146.408 63.5587 146.381 61.0782 146.437ZM32.4645 149C35.4219 149.007 37.9903 151.445 37.9888 154.243C38.2059 157.566 35.2238 159.974 33.0793 160C30.5401 160.03 28.1355 157.535 28.0029 154.015C27.9067 151.454 30.1986 148.995 32.4645 149ZM31.523 151.298C30.3184 151.313 29.6145 152.254 29.6119 153.852C29.6089 155.89 31.1775 158.007 32.7384 158.072C34.3684 158.14 36.325 156.103 36.3557 154.307C36.3874 152.473 34.4426 151.261 31.523 151.298ZM175.671 140.85C173.247 141.014 170.941 141.21 168.631 141.316C166.779 141.401 165.079 141.671 164.196 143.604C164.104 143.806 163.867 143.937 163.726 144.123C161.62 146.891 159.48 149.635 157.435 152.449C156.757 153.382 156.754 154.361 158.041 154.968C159.437 155.628 160.804 156.349 162.055 156.979C166.106 150.983 171.089 146.14 175.671 140.85ZM193.494 142.687C192.25 144.081 190.849 145.333 189.571 146.699C187.656 148.745 185.79 150.838 183.749 153.079C184.754 153.96 186.063 155.108 187.364 156.25C188.709 154.657 189.962 153.163 191.227 151.681C193.497 149.022 195.805 146.393 198.01 143.681C198.254 143.382 198.138 142.425 197.837 142.119C196.942 141.207 194.363 141.712 193.494 142.687ZM218.489 139.004C220.079 140.288 221.344 141.637 221.868 143.693C222.767 147.221 218.896 151.425 216.003 150.965C211.421 151.188 208.454 145.976 210.851 141.718C211.785 140.06 213.038 138.63 215.112 138.121C216.463 137.789 217.44 138.157 218.489 139.004ZM212.326 142.991C210.887 145.738 212.71 148.733 215.848 148.853C216.445 148.716 217.126 148.712 217.627 148.419C220.415 146.786 220.854 144.238 218.434 141.892C215.847 139.384 214.005 139.787 212.326 142.991ZM78.8313 126.935C76.7338 127.047 74.6346 127.152 72.535 127.213C70.1626 127.282 68.0029 128.139 66.0155 129.262C62.9087 131.018 60.7118 133.788 58.8564 136.761C57.2059 139.405 55.8029 142.203 54.2901 144.934C54.4293 145.08 54.5691 145.226 54.7083 145.371C68.2766 143.824 81.5288 146.327 95.1597 148.385C94.6293 145.742 94.1629 143.173 93.5921 140.628C92.866 137.389 91.2352 134.616 89.0139 132.168C86.2731 129.146 83.2496 126.698 78.8313 126.935ZM119.217 28.7798C115.475 29.0731 111.72 29.5128 108.041 30.2412C97.8101 32.2659 88.0192 35.5798 78.8878 40.711C70.618 45.3579 63.2725 51.1632 57.5594 58.7412C50.5995 67.973 46.8293 78.3124 47.7629 90.1086C48.1029 94.4038 49.0205 98.5179 50.5602 102.508C54.0034 111.435 59.7957 118.65 66.9978 124.809C67.5402 125.273 68.4485 125.832 68.9991 125.678C72.0961 124.812 75.2308 124.715 78.4106 124.699C83.2796 124.673 87.0085 127.125 90.1556 130.355C92.5777 132.84 94.2121 136.005 95.5691 139.253C95.7782 139.753 96.3366 140.304 96.8459 140.455C106.402 143.299 116.157 144.948 126.142 145.02C129.892 145.047 133.649 144.949 137.392 144.723C140.03 144.564 142.681 144.249 145.27 143.725C149.109 142.946 152.898 141.92 156.729 140.996C157.659 137.462 159.469 134.407 161.483 131.437C165.635 125.313 171.494 122.294 178.769 121.933C180.954 121.825 183.175 121.951 185.347 122.228C187.165 122.46 189.038 122.841 190.697 123.581C192.045 124.183 192.798 123.83 193.694 122.981C198.663 118.268 203.126 113.167 206.361 107.067C209.745 100.689 211.716 93.9123 211.787 86.7052C211.83 82.2869 211.132 77.8955 209.748 73.6551C206.101 62.488 198.944 53.9054 189.824 46.8167C182.628 41.2236 174.576 37.1907 165.997 34.1784C155.263 30.4088 144.171 28.5175 132.83 28.2284C128.298 28.1135 123.743 28.4255 119.217 28.7798ZM178.136 123.618C171.29 124.545 165.556 127.498 161.864 133.662C160.523 135.9 159.136 138.106 158.613 140.692L161.294 140.395C173.507 139.047 185.667 137.849 198.069 140.292C197.85 138.838 197.769 137.501 197.432 136.232C196.832 133.975 196.43 131.557 195.299 129.576C193.777 126.914 191.416 125.163 188.114 124.541C184.788 123.914 181.466 123.167 178.136 123.618ZM38.9541 116C42.9635 116.026 45.4596 117.994 46.5127 122.007C47.711 126.575 46.6895 130.692 43.5565 134.11C41.2111 136.669 34.8665 138.189 31.731 135.818C29.7048 134.287 28.6149 132.226 28.2287 129.895C27.6271 126.26 28.1439 122.761 30.6012 119.778C32.777 117.135 35.6403 116.07 38.9541 116ZM38.6257 117.407C37.0587 117.876 35.3793 118.182 33.987 118.982C29.5516 121.528 28.8825 127.265 30.4852 131.138C31.3745 133.288 32.8301 134.762 35.3308 134.78C40.3913 134.772 43.7199 132.213 44.7925 127.285C45.5423 123.842 45.0918 120.868 41.609 118.865C40.9409 118.481 40.3408 117.977 39.6691 117.602C39.3709 117.436 38.9316 117.316 38.6257 117.407ZM227.513 113.605C228.332 114.929 228.523 116.644 229 118.182C228.632 122.143 227.754 125.751 225.24 128.73C222.519 131.952 219.004 133.495 214.746 132.859C209.866 132.13 207.416 128.936 206.232 124.379C204.931 119.37 209.234 110.474 215.846 109.189C219.905 108.4 225.36 110.125 227.513 113.605ZM215.401 111.159C211.504 112.633 209.407 115.705 208.287 119.493C207.208 123.141 208.334 126.296 211.192 128.704C213.625 130.755 216.45 130.81 219.351 129.732C224.248 127.914 226.406 123.707 226.908 118.565C226.574 117.311 226.46 115.938 225.863 114.825C224.358 112.01 218.392 110.029 215.401 111.159ZM169.726 61.8259C172.685 65.3886 175.653 68.9451 178.68 72.4496C180.309 74.3364 182.088 76.0909 183.75 77.9496C185.813 80.2556 187.837 82.598 189.841 84.956C190.015 85.1599 190.054 85.6801 189.919 85.9126C189.45 86.7095 188.977 87.547 188.326 88.1853C182.923 93.4891 177.494 98.7675 172.039 104.018C170.214 105.775 168.32 107.464 166.391 109.107C165.942 109.489 165.228 109.714 164.629 109.73C162.049 109.796 159.467 109.758 156.885 109.758C156.556 109.759 156.224 109.732 155.9 109.768C155.204 109.846 154.254 110.426 154.013 109.389C153.9 108.903 154.538 108.107 155.016 107.637C160.818 101.939 166.673 96.2945 172.468 90.5886C174.208 88.8751 175.806 87.0144 177.53 85.1552C170.51 77.3342 163.485 69.5085 156.46 61.6828C156.537 61.5065 156.614 61.3306 156.69 61.1548C158.202 61.1116 159.714 61.0471 161.226 61.0321C163.318 61.0107 165.412 61.0752 167.502 61.0045C168.4 60.9743 169.107 61.0799 169.726 61.8259ZM97.6881 58C98.4333 57.9919 99.1817 58.2537 99.9285 58.3919C99.9616 58.5493 99.9947 58.7062 100.027 58.8631C92.7807 66.8215 85.5342 74.78 78.1988 82.8361C83.7392 88.2692 89.242 93.6763 94.7597 99.0688C96.7402 101.004 98.7806 102.878 100.738 104.837C101.22 105.318 101.484 106.018 102 106.868C101.145 106.914 100.697 106.958 100.248 106.959C97.7604 106.963 95.2672 106.86 92.7859 106.991C91.192 107.075 90.1299 106.576 88.9468 105.45C84.6416 101.354 80.1281 97.4791 75.7511 93.4576C72.2955 90.2828 68.9268 87.014 65.5172 83.7889C64.7766 83.0886 64.8789 82.3987 65.5224 81.7082C68.3386 78.6867 71.158 75.6684 73.9695 72.6427C74.9277 71.612 75.8157 70.5106 76.8235 69.5324C80.0899 66.3613 83.4808 63.3148 86.6537 60.0528C88.2471 58.4142 90.0162 58.1597 92.0964 58.2267C93.9555 58.2864 95.8233 58.021 97.6881 58ZM148.353 62.0026C150.007 62.0046 150.429 62.6546 149.557 64.0573C148.358 65.9857 147.08 67.8678 145.783 69.7346C141.605 75.7457 137.415 81.7486 133.204 87.7381C129.67 92.767 126.089 97.7646 122.554 102.793C121.81 103.85 121.363 105.186 120.429 106.011C119.7 106.655 118.445 106.872 117.392 106.974C116.234 107.087 115.043 106.796 113.864 106.777C111.414 106.739 108.963 106.766 106 106.766C106.4 105.688 106.518 105 106.876 104.466C112.459 96.1252 118.039 87.7812 123.696 79.4885C126.638 75.1753 129.735 70.9643 132.747 66.6978C133.544 65.5693 134.419 64.4675 135.017 63.2399C135.551 62.1432 136.367 61.999 137.383 62C141.04 62.0036 144.696 61.998 148.353 62.0026Z" fill="black"/>
</svg>
