<?xml version="1.0" standalone="no"?>
<!DOCTYPE svg PUBLIC "-//W3C//DTD SVG 20010904//EN"
 "http://www.w3.org/TR/2001/REC-SVG-20010904/DTD/svg10.dtd">
<svg version="1.0" xmlns="http://www.w3.org/2000/svg"
 width="882.000000pt" height="882.000000pt" viewBox="0 0 882.000000 882.000000"
 preserveAspectRatio="xMidYMid meet">
<metadata>
Created by potrace 1.14, written by Peter Selinger 2001-2017
</metadata>
<g transform="translate(0.000000,882.000000) scale(0.100000,-0.100000)"
fill="#000000" stroke="none">
<path d="M4028 8665 c-2 -2 -48 -6 -103 -10 -55 -3 -111 -8 -125 -10 -14 -2
-65 -9 -115 -15 -49 -6 -108 -15 -130 -20 -22 -5 -57 -11 -79 -14 -164 -25
-596 -147 -737 -208 -19 -8 -86 -37 -149 -64 -117 -49 -360 -169 -460 -226
-183 -105 -477 -315 -651 -465 -173 -150 -432 -420 -549 -573 -19 -25 -37 -47
-41 -50 -3 -3 -37 -48 -74 -100 -363 -503 -603 -1049 -730 -1660 -11 -53 -35
-193 -40 -235 -6 -48 -10 -79 -20 -148 -29 -210 -26 -703 6 -967 14 -117 15
-127 28 -195 6 -33 13 -73 16 -90 12 -71 40 -195 62 -275 8 -30 16 -59 17 -65
16 -72 108 -349 146 -440 108 -256 164 -371 262 -544 91 -158 255 -401 359
-531 155 -193 241 -285 459 -493 179 -172 382 -324 670 -504 246 -153 534
-288 852 -399 184 -63 422 -123 635 -160 108 -18 112 -19 198 -28 33 -4 67 -9
75 -11 107 -27 1058 -27 1197 -1 12 3 50 7 84 11 55 6 299 46 357 60 12 3 31
7 43 10 11 2 28 6 37 9 9 3 30 7 45 10 51 9 317 87 362 106 11 5 47 18 79 30
322 115 604 258 911 463 200 133 354 254 518 407 547 509 925 1095 1157 1790
40 119 95 313 104 365 3 17 10 46 16 65 9 32 45 233 54 305 5 37 17 123 21
151 25 167 25 735 0 914 -4 33 -14 108 -20 168 -4 26 -10 63 -15 82 -5 19 -11
53 -14 75 -15 105 -79 362 -133 530 -88 274 -252 638 -391 865 -12 19 -25 42
-29 50 -9 19 -144 223 -152 230 -3 3 -22 28 -40 55 -194 281 -550 645 -857
878 -98 73 -397 277 -407 277 -3 0 -35 18 -72 41 -169 102 -490 246 -748 335
-212 72 -576 160 -747 180 -19 2 -55 6 -80 9 -25 3 -61 8 -80 10 -90 14 -204
18 -577 21 -221 1 -403 1 -405 -1z"/>
</g>
</svg>
